<?xml version="1.0" encoding="UTF-8"?><svg id="b" xmlns="http://www.w3.org/2000/svg" xmlns:xlink="http://www.w3.org/1999/xlink" viewBox="0 0 1327.29424 240.42702"><defs><style>.be{fill:url(#ah);}.be,.bf,.bg,.bh,.bi,.bj,.bk,.bl,.bm,.bn,.bo,.bp,.bq,.br,.bs,.bt,.bu,.bv,.bw,.bx,.by,.bz,.ca,.cb,.cc,.cd,.ce,.cf,.cg,.ch,.ci,.cj,.ck,.cl,.cm,.cn,.co,.cp,.cq,.cr,.cs,.ct,.cu,.cv,.cw,.cx,.cy,.cz,.da,.db,.dc,.dd,.de{stroke-width:0px;}.bf{fill:url(#ag);}.bg{fill:url(#aa);}.bh{fill:url(#ao);}.bi{fill:url(#af);}.bj{fill:url(#ae);}.bk{fill:url(#ab);}.bl{fill:url(#aj);}.bm{fill:url(#ap);}.bn{fill:url(#ai);}.bo{fill:url(#ad);}.bp{fill:url(#an);}.bq{fill:url(#am);}.br{fill:url(#ac);}.bs{fill:url(#at);}.bt{fill:url(#as);}.bu{fill:url(#bd);}.bv{fill:url(#ba);}.bw{fill:url(#bb);}.bx{fill:url(#bc);}.by{fill:url(#ar);}.bz{fill:url(#ay);}.ca{fill:url(#az);}.cb{fill:url(#aw);}.cc{fill:url(#aq);}.cd{fill:url(#ax);}.ce{fill:url(#ak);}.cf{fill:url(#al);}.cg{fill:url(#au);}.ch{fill:url(#av);}.ci{fill:url(#v);}.cj{fill:url(#e);}.ck{fill:url(#y);}.cl{fill:url(#z);}.cm{fill:url(#x);}.cn{fill:url(#w);}.co{fill:url(#u);}.cp{fill:url(#t);}.cq{fill:url(#f);}.cr{fill:url(#d);}.cs{fill:url(#s);}.ct{fill:url(#j);}.cu{fill:url(#q);}.cv{fill:url(#r);}.cw{fill:url(#i);}.cx{fill:url(#h);}.cy{fill:url(#m);}.cz{fill:url(#g);}.da{fill:url(#o);}.db{fill:url(#p);}.dc{fill:url(#k);}.dd{fill:url(#n);}.de{fill:url(#l);}</style><linearGradient id="d" x1="-109.85215" y1="197.75175" x2="1489.13283" y2="-480.97723" gradientTransform="translate(0 222.26199) scale(1 -1)" gradientUnits="userSpaceOnUse"><stop offset=".024" stop-color="#567dff"/><stop offset=".2" stop-color="#9f42d1"/><stop offset=".359" stop-color="#f04ab9"/><stop offset=".5" stop-color="#ff25c7"/><stop offset=".75" stop-color="#ff3c6d"/><stop offset="1" stop-color="#ffea65"/></linearGradient><linearGradient id="e" x1="-51.07092" y1="336.23162" x2="1547.91406" y2="-342.49736" xlink:href="#d"/><linearGradient id="f" x1="-43.4998" y1="354.06806" x2="1555.48518" y2="-324.66092" xlink:href="#d"/><linearGradient id="g" x1="-27.80678" y1="391.03849" x2="1571.1782" y2="-287.69049" xlink:href="#d"/><linearGradient id="h" x1="-4.26356" y1="446.50282" x2="1594.72142" y2="-232.22616" xlink:href="#d"/><linearGradient id="i" x1="6.02626" y1="470.74413" x2="1605.01124" y2="-207.98485" xlink:href="#d"/><linearGradient id="j" x1="19.49775" y1="502.48096" x2="1618.48273" y2="-176.24802" xlink:href="#d"/><linearGradient id="k" x1="29.58556" y1="526.24635" x2="1628.57054" y2="-152.48263" xlink:href="#d"/><linearGradient id="l" x1="40.37125" y1="551.65583" x2="1639.32451" y2="-127.05969" xlink:href="#d"/><linearGradient id="m" x1="60.90059" y1="600.01992" x2="1659.88557" y2="-78.70906" xlink:href="#d"/><linearGradient id="n" x1="71.52075" y1="625.03943" x2="1670.50573" y2="-53.68955" xlink:href="#d"/><linearGradient id="o" x1="76.75758" y1="637.37663" x2="1675.74256" y2="-41.35235" xlink:href="#d"/><linearGradient id="p" x1="88.75727" y1="665.64614" x2="1687.74225" y2="-13.08284" xlink:href="#d"/><linearGradient id="q" x1="-108.0893" y1="201.90476" x2="1490.89568" y2="-476.82422" xlink:href="#d"/><linearGradient id="r" x1="-97.68382" y1="226.41854" x2="1501.30116" y2="-452.31044" xlink:href="#d"/><linearGradient id="s" x1="-91.18258" y1="241.7345" x2="1507.8024" y2="-436.99448" xlink:href="#d"/><linearGradient id="t" x1="-81.88057" y1="263.64864" x2="1517.10441" y2="-415.08034" xlink:href="#d"/><linearGradient id="u" x1="-69.45239" y1="292.92759" x2="1529.53258" y2="-385.80139" xlink:href="#d"/><linearGradient id="v" x1="-57.55461" y1="320.95701" x2="1541.43037" y2="-357.77197" xlink:href="#d"/><linearGradient id="w" x1="-50.0475" y1="338.64264" x2="1548.93748" y2="-340.08634" xlink:href="#d"/><linearGradient id="x" x1="-38.9879" y1="364.69743" x2="1559.99708" y2="-314.03155" xlink:href="#d"/><linearGradient id="y" x1="-35.87688" y1="372.02653" x2="1563.1081" y2="-306.70245" xlink:href="#d"/><linearGradient id="z" x1="-34.38487" y1="375.54149" x2="1564.60011" y2="-303.1875" xlink:href="#d"/><linearGradient id="aa" x1="-21.11231" y1="406.80967" x2="1577.87267" y2="-271.91932" xlink:href="#d"/><linearGradient id="ab" x1="-13.98768" y1="423.59423" x2="1584.99729" y2="-255.13475" xlink:href="#d"/><linearGradient id="ac" x1="-3.71936" y1="447.78489" x2="1595.26562" y2="-230.94409" xlink:href="#d"/><linearGradient id="ad" x1="2.46033" y1="462.34331" x2="1601.44531" y2="-216.38567" xlink:href="#d"/><linearGradient id="ae" x1="8.80678" y1="477.29462" x2="1607.79176" y2="-201.43436" xlink:href="#d"/><linearGradient id="af" x1="16.19118" y1="494.69116" x2="1615.17615" y2="-184.03783" xlink:href="#d"/><linearGradient id="ag" x1="24.52112" y1="514.31527" x2="1623.5061" y2="-164.41371" xlink:href="#d"/><linearGradient id="ah" x1="29.13278" y1="525.17965" x2="1628.11776" y2="-153.54933" xlink:href="#d"/><linearGradient id="ai" x1="36.36487" y1="542.21738" x2="1635.34985" y2="-136.5116" xlink:href="#d"/><linearGradient id="aj" x1="42.25468" y1="556.09291" x2="1641.23966" y2="-122.63607" xlink:href="#d"/><linearGradient id="ak" x1="-108.0893" y1="201.90476" x2="1490.89568" y2="-476.82422" xlink:href="#d"/><linearGradient id="al" x1="-97.68382" y1="226.41854" x2="1501.30116" y2="-452.31044" xlink:href="#d"/><linearGradient id="am" x1="-91.18258" y1="241.7345" x2="1507.8024" y2="-436.99448" xlink:href="#d"/><linearGradient id="an" x1="-81.88057" y1="263.64864" x2="1517.10441" y2="-415.08034" xlink:href="#d"/><linearGradient id="ao" x1="-69.45239" y1="292.92759" x2="1529.53258" y2="-385.80139" xlink:href="#d"/><linearGradient id="ap" x1="-57.55461" y1="320.95701" x2="1541.43037" y2="-357.77197" xlink:href="#d"/><linearGradient id="aq" x1="-50.0475" y1="338.64264" x2="1548.93748" y2="-340.08634" xlink:href="#d"/><linearGradient id="ar" x1="-38.9879" y1="364.69743" x2="1559.99708" y2="-314.03155" xlink:href="#d"/><linearGradient id="as" x1="-35.87688" y1="372.02653" x2="1563.1081" y2="-306.70245" xlink:href="#d"/><linearGradient id="at" x1="-34.38487" y1="375.54149" x2="1564.60011" y2="-303.1875" xlink:href="#d"/><linearGradient id="au" x1="-21.11231" y1="406.80967" x2="1577.87267" y2="-271.91932" xlink:href="#d"/><linearGradient id="av" x1="-13.98768" y1="423.59423" x2="1584.99729" y2="-255.13475" xlink:href="#d"/><linearGradient id="aw" x1="-3.71936" y1="447.78489" x2="1595.26562" y2="-230.94409" xlink:href="#d"/><linearGradient id="ax" x1="2.46033" y1="462.34331" x2="1601.44531" y2="-216.38567" xlink:href="#d"/><linearGradient id="ay" x1="8.80678" y1="477.29462" x2="1607.79176" y2="-201.43436" xlink:href="#d"/><linearGradient id="az" x1="16.19118" y1="494.69116" x2="1615.17615" y2="-184.03783" xlink:href="#d"/><linearGradient id="ba" x1="24.52112" y1="514.31527" x2="1623.5061" y2="-164.41371" xlink:href="#d"/><linearGradient id="bb" x1="29.13278" y1="525.17965" x2="1628.11776" y2="-153.54933" xlink:href="#d"/><linearGradient id="bc" x1="36.36487" y1="542.21738" x2="1635.34985" y2="-136.5116" xlink:href="#d"/><linearGradient id="bd" x1="42.25468" y1="556.09291" x2="1641.23966" y2="-122.63607" xlink:href="#d"/></defs><g id="c"><path class="cr" d="M236.64903,4.824l-12.841-.353c-.07639-.00179-.1517.01833-.21701.058l-9.91699,6.11c-.18347.11493-.42538.05936-.54031-.12411-.03757-.06001-.0582-.12908-.05969-.19988l-.12399-4.776c-.00549-.20521-.16797-.37162-.37299-.382l-14.66901-.72599c-.12781-.00533-.25046.0508-.32999.151l-14.88699,19.185c-.12888.16603-.36575.20088-.53699.07899l-1.14603-.815c-.16-.11253-.21323-.32541-.125-.5l8.98199-17.993c.09702-.19355.01874-.42908-.1748-.52609-.04773-.02393-.09988-.03785-.1532-.04091l-38.82901-2.309c-.14001-.00818-.2738.0589-.35101.176l-36.84897,55.935c-.11981.18098-.36365.23058-.54463.11076-.05479-.03627-.09962-.08569-.13037-.14377L83.46803,2.03999c-.07167-.13522-.21515-.21671-.368-.209l-12.11501.648c-.21567.01102-.38156.19479-.37053.41045.00174.03418.00798.06799.01852.10055l2.3,7.193c.18694.58616-.13669,1.21288-.72284,1.39982-.30676.09783-.64085.05815-.91617-.10882l-14.02-8.516c-.0795-.04884-.17397-.0673-.26601-.052l-5.235.842c-.05977.0098-.11653.03306-.166.068l-8.8,6.276c-.07474.05297-.16566.07809-.257.071l-31.2-2.375c-.01797-.0015-.03603-.0015-.054,0l-6.2.372c-.04222.00277-.08374.01222-.123.028L.246,10.08801C.09717,10.14803-.00021,10.29252,0,10.453l.248,227.32899c0,.21649.17551.392.392.392h8.63c.20492.00009.37531-.15768.391-.362l1.574-20.59399c.01695-.2164.20611-.37805.42249-.36111.1732.01358.31695.13925.35351.30911l4.389,20.70001c.03797.18167.19841.31161.384.311h39.717c.20583.00049.3768-.15866.39101-.36401l1.144-15.60001c.01518-.20526.18617-.36404.392-.36401h1.38002c.21649,0,.392.17551.392.392v15.543c0,.21649.17551.392.392.392h19.201c.21626,0,.39191-.17471.39301-.39099l.183-86.30899v-12.08501c-.00273-.21648.17055-.39418.38702-.39691.1422-.00179.27422.07356.34497.19691l29.582,50.97c.10777.18585.34581.24915.53166.14136.05521-.03201.10168-.07712.13535-.13135,3.937-6.38,13.444-21.78699,20.73601-33.61801,1.07399-1.74268,2.14566-3.44601,3.215-5.10999.07224-.11017.08171-.25006.02499-.36899-2.72-5.709-7.21001-14.92999-9.26199-19.134-.09448-.19479-.01315-.42929.18164-.52377.15315-.07426.33672-.04123.45436.08177l12.592,13c.15256.15517.40201.15727.55717.00473.01939-.01907.03676-.04008.05182-.06273,3.183-4.733,6.02901-8.752,8.07201-11.577.12791-.17398.37265-.21132.54663-.0834.10146.07458.16077.19348.15936.3194v99.28699c0,.21649.17551.392.392.392h25.30099c.20193.00241.37177-.15088.39001-.35199.319-3.5,1.38901-16.5,1.883-22.52899.01297-.22052.20224-.38879.42279-.37582.18912.01111.34451.15338.37222.34082l1.91,22.55701c.01715.20312.18713.35922.39099.35901h19.13c.21594.00055.39145-.17404.392-.38998v-17.22305c0-.21649.17551-.392.392-.392h2.71802c.21649-.00055.39246.1745.39301.39099v17.22501c-.00055.21594.17404.39145.38998.392h8.26901c.21649.00055.39246-.1745.39301-.39099v-41.73901c-.00055-.21649.1745-.39246.39099-.39301h2.82401c.21649,0,.392.17551.392.392v41.73901c0,.21649.17551.392.392.392h12.85098c.21609,0,.39145-.1749.392-.39099l.57901-217.18201c.00006-.08531.02817-.16824.07999-.236l7.23199-9.518c.13098-.17307.09686-.41956-.0762-.55054-.06519-.04932-.1441-.0771-.2258-.07946Z"/><path class="cj" d="M333.55604,109.5c-7.29822.14015-14.51483-1.55431-20.98801-4.92799-6.00061-3.18137-10.9841-7.98813-14.38-13.87-3.48068-5.96066-5.22067-12.95633-5.22-20.987V2.18999h8.46899v65.773c-.1438,5.28337.8909,10.53244,3.02899,15.366,1.8269,4.00684,4.51953,7.55875,7.884,10.39999,3.08835,2.5929,6.62625,4.59709,10.43799,5.91299,6.96805,2.53036,14.60394,2.53036,21.57199,0,3.81711-1.30466,7.35733-3.30997,10.439-5.91299,3.34525-2.85086,6.02423-6.40099,7.84799-10.39999,2.13666-4.834,3.17133-10.08275,3.02899-15.366V2.18999h8.46899v67.525c.16864,7.31349-1.63443,14.53754-5.22,20.914-3.40274,5.88495-8.38416,10.70047-14.38095,13.90199-6.46558,3.39825-13.68506,5.10751-20.98798,4.96901Z"/><path class="cq" d="M426.92304,109.5c-7.836,0-14.47906-1.77634-19.92902-5.32899-5.49893-3.60616-9.83563-8.72784-12.48599-14.746-2.98514-6.83136-4.45486-14.22835-4.30801-21.68201-.15491-7.4727,1.34061-14.88757,4.38-21.716,2.68411-5.98105,7.06223-11.04437,12.59302-14.564,5.474-3.45467,12.05597-5.18266,19.74597-5.18401,7.83533,0,14.49066,1.76434,19.966,5.293,5.49896,3.55768,9.83795,8.64536,12.48297,14.63699,2.96069,6.78577,4.41772,14.13191,4.271,21.534.1629,7.51419-1.30688,14.97421-4.30798,21.86501-2.65851,6.00478-7.02521,11.0945-12.55603,14.63499-5.49731,3.50534-12.11462,5.25769-19.85193,5.25702ZM426.92304,101.323c9.29468,0,16.242-3.11432,20.84198-9.343s6.90002-14.30766,6.90002-24.237c0-10.12067-2.31134-18.19899-6.93402-24.235-4.62268-6.036-11.55804-9.05333-20.80603-9.052-6.27667,0-11.45966,1.42334-15.54901,4.27-4.14972,2.92494-7.33798,7.01566-9.16101,11.754-2.11316,5.50525-3.14169,11.3672-3.02899,17.263,0,10.12334,2.34802,18.25099,7.04401,24.383,4.69604,6.132,11.59369,9.19768,20.69305,9.19701Z"/><path class="cz" d="M474.95405,107.31L512.18507,2.18999h10.43799l37.23102,105.12h-8.90698l-35.77002-100.741h4.23096l-35.54797,100.741h-8.90601ZM490.35407,80.884v-7.953h54.01898v7.957l-54.01898-.004Z"/><path class="cx" d="M602.19105,107.31V2.18999h7.81097l43.06897,92.99999L695.70399,2.18999h8.09998v104.97301h-8.24591V21.53099l-39.12799,85.776h-6.86206l-39.20001-85.776v85.776l-8.17694.00301Z"/><path class="cw" d="M747.02302,109.5c-6.08398,0-11.1333-1.07098-15.14801-3.213-3.76422-1.9016-6.89612-4.85422-9.01599-8.5-1.98975-3.50418-3.02203-7.47041-2.99298-11.5-.1391-3.93683.83521-7.83304,2.81097-11.241,1.86993-3.01295,4.45209-5.5199,7.51898-7.3,3.24341-1.89015,6.7478-3.29189,10.40002-4.16,4.33331-.97266,9.00507-1.812,14.01501-2.51801,5.01007-.70599,9.79163-1.32701,14.34497-1.86301,4.54999-.53334,8.26105-.99533,11.133-1.386l-3.06598,1.825c.19403-8.51599-1.39996-14.85501-4.78198-19.017-3.38202-4.162-9.33136-6.24232-17.84802-6.241-5.98737,0-10.91498,1.35034-14.78302,4.05099-3.86798,2.70067-6.58105,6.87366-8.13898,12.519l-8.61499-2.408c1.80005-7.15399,5.42572-12.65399,10.87701-16.5,5.45135-3.84599,12.4353-5.76866,20.95203-5.76801,7.25061,0,13.34601,1.41167,18.28601,4.235,4.7525,2.60757,8.41626,6.82819,10.33002,11.89999.88843,2.35863,1.45325,4.82674,1.67902,7.33701.29175,2.80119.43762,5.61566.43701,8.43201v49.129h-7.66498v-20.73598l2.84802.731c-2.12183,6.76028-6.53589,12.56841-12.48114,16.423-5.93732,3.84401-12.9693,5.767-21.09601,5.769ZM747.46003,101.76199c4.85327.10487,9.66827-.88066,14.09003-2.884,3.91089-1.81699,7.29102-4.60565,9.81799-8.10001,2.57202-3.64931,4.21362-7.8717,4.78198-12.3.50348-2.81984.77106-5.67673.79999-8.541.04803-3.06667.07269-5.32967.07397-6.789l3.65002,2.336c-3.16394.39-6.94794.80368-11.35199,1.241-4.40399.43733-8.89331.97066-13.46802,1.60001-4.18103.55685-8.32526,1.36127-12.41101,2.409-2.38818.67245-4.7005,1.59001-6.90002,2.73801-2.28235,1.1675-4.25793,2.85565-5.76703,4.92799-1.60626,2.33415-2.41321,5.12582-2.29999,7.957.02582,2.492.63837,4.94289,1.78802,7.15401,1.33575,2.53029,3.41144,4.59303,5.95001,5.91299,2.776,1.55936,6.52466,2.33868,11.24603,2.33801Z"/><path class="ct" d="M804.40101,107.31V2.18999h8.46802v64.241l37.29999-37.96001h11.75299l-39.05499,39.42,44.59998,39.42h-13.05896l-41.53601-37.95999v37.95999l-8.47101-.00099Z"/><path class="dc" d="M905.79701,109.5c-7.54401,0-14.06531-1.69133-19.56403-5.07401-5.56335-3.45274-10.00208-8.44945-12.77502-14.381-3.01801-6.20467-4.52667-13.54134-4.526-22.00999,0-8.61267,1.49634-16.04601,4.48901-22.3,2.72449-5.94963,7.14178-10.96449,12.70001-14.418,5.47601-3.358,11.98529-5.03734,19.52802-5.03799,7.63995,0,14.17322,1.74001,19.59998,5.22,5.56909,3.65051,9.89697,8.90752,12.41003,15.07401,2.84668,6.57066,4.19739,14.47932,4.052,23.726h-8.76001v-2.92c-.24402-10.80467-2.67737-19.02968-7.30005-24.675-4.62268-5.64534-11.24103-8.468-19.85498-8.468-8.90601,0-15.78033,2.93333-20.62299,8.8s-7.26428,14.15134-7.26495,24.85399c0,10.61,2.42096,18.83467,7.263,24.674,4.84198,5.83934,11.66766,8.759,20.47699,8.759,5.61548.12753,11.15027-1.3541,15.95105-4.27,4.67859-2.99039,8.43213-7.22453,10.83997-12.228l7.59204,3.35899c-2.89661,6.50851-7.67639,12.00018-13.72302,15.76701-6.17517,3.7511-13.28699,5.67513-20.51105,5.549ZM874.69703,70.3v-7.592h62.26898v7.592h-62.26898Z"/><path class="de" d="M957.84504,107.31V28.47h7.66504v18.907l-1.90002-2.48199c.85754-2.20428,1.97266-4.2995,3.32202-6.242,1.17322-1.73524,2.55872-3.31715,4.12402-4.709,2.12659-1.9651,4.63696-3.46866,7.37305-4.416,2.75049-.98254,5.62585-1.57202,8.54102-1.75101,2.62402-.19276,5.26196.04128,7.81104.69299v7.96101c-3.25635-.73701-6.61829-.88568-9.927-.439-3.65857.5085-7.08643,2.08296-9.85596,4.52699-2.57849,2.19865-4.58289,4.99213-5.83997,8.13901-1.22241,3.11319-2.00854,6.38046-2.33606,9.709-.33508,3.28674-.50525,6.58821-.51001,9.892v39.05501l-8.46716-.00401Z"/><path class="cy" d="M1079.82697,109.5c-10.46667,0-19.25098-2.32401-26.35303-6.972-7.15039-4.70012-12.74084-11.42119-16.06006-19.308-3.59998-8.224-5.40002-17.714-5.40002-28.47s1.80005-20.24634,5.40002-28.47099c3.31982-7.88646,8.91016-14.60738,16.06006-19.308C1060.57929,2.32368,1069.36359,0,1079.82697,0c12.21472,0,22.13037,3.163,29.74695,9.489,7.6167,6.326,12.7876,14.79433,15.51294,25.40501l-8.68701,2.117c-2.23938-8.808-6.41272-15.80367-12.52002-20.987-6.10742-5.18333-14.125-7.775-24.05298-7.775-8.61401,0-15.78064,1.97066-21.5,5.912-5.83105,4.08295-10.32617,9.79739-12.92102,16.426-3.02405,7.69203-4.5238,15.89859-4.41602,24.16299-.25085,8.24362,1.1781,16.4521,4.19995,24.12601,2.6228,6.64345,7.15747,12.35957,13.03003,16.425,5.79138,3.96799,12.99402,5.95132,21.60803,5.95,9.92798.00002,17.94556-2.60367,24.05298-7.811,6.1073-5.20734,10.28064-12.19135,12.52002-20.952l8.68701,2.118c-2.72729,10.61-7.89819,19.07666-15.51294,25.39999-7.61462,6.32333-17.53064,9.48801-29.74792,9.49399Z"/><path class="dd" d="M1142.60798,107.31V0h8.40002v107.31h-8.40002Z"/><path class="da" d="M1203.19404,109.131c-3.96289.06105-7.90503-.58228-11.64294-1.89999-3.30273-1.18655-6.3407-3.00929-8.94202-5.36501-2.5531-2.33867-4.67773-5.10565-6.27795-8.17599-1.69775-3.25751-2.93811-6.73358-3.68604-10.33-.8158-3.86409-1.2196-7.80377-1.20496-11.75301V28.47h8.4679v41.02501c-.05603,4.47389.44788,8.93721,1.5,13.286.84863,3.57266,2.38635,6.94536,4.52698,9.929,1.96301,2.67796,4.57581,4.81172,7.59204,6.2,3.39148,1.48276,7.06653,2.205,10.76697,2.116,3.82983.0934,7.63245-.66699,11.13196-2.226,3.05237-1.41394,5.70984-3.5573,7.73804-6.241,2.10583-2.85609,3.6427-6.09048,4.52698-9.52701,1.02917-3.91901,1.53357-7.95726,1.5-12.009l6.64294.8c0,8.51666-1.44775,15.53665-4.34302,21.06-2.56909,5.18336-6.65625,9.46121-11.71704,12.26399-5.10376,2.70097-10.80615,4.07123-16.57983,3.98401ZM1229.98505,107.306v-17.74001h-.80005V28.46599h8.46802v78.84l-7.66797.00002Z"/><path class="db" d="M1258.09003,107.31V2.18999h8.39502v44.383h-.72998v60.737h-7.66504ZM1292.61909,109.5c-7.10608,0-13.11633-1.84967-18.03101-5.549-5.0448-3.86699-8.93298-9.04286-11.24194-14.965-2.66931-6.75902-3.98352-13.97691-3.86804-21.243-.12183-7.27829,1.19263-14.5092,3.86804-21.27901,2.323-5.92488,6.30164-11.0563,11.46106-14.782,5.0614-3.60001,11.26636-5.39999,18.61499-5.39999,7.15393,0,13.2616,1.82533,18.323,5.476,5.16992,3.78821,9.17773,8.94635,11.57104,14.892,5.32947,13.62782,5.30298,28.76785-.07397,42.377-2.44922,5.98433-6.51941,11.16663-11.75305,14.964-5.13403,3.67198-11.42407,5.50832-18.87012,5.50899ZM1292.10908,101.47c5.79065,0,10.62073-1.48433,14.48999-4.453,3.98914-3.13159,7.02332-7.31609,8.76001-12.08099,3.91748-11.07222,3.94324-23.14915.073-34.23799-1.7019-4.73387-4.71521-8.88606-8.68799-11.972-3.8667-2.944-8.79407-4.416-14.78198-4.416-5.79199,0-10.63403,1.42334-14.526,4.27-4.01819,3.01196-7.06433,7.13664-8.76099,11.86301-2.02893,5.53804-3.0188,11.40283-2.92004,17.3-.09277,5.88222.8844,11.73232,2.88403,17.265,1.69531,4.77681,4.73792,8.96034,8.76001,12.045,3.91663,2.94533,8.81946,4.41763,14.70886,4.41698h.0011Z"/><path class="cu" d="M337.80802,178.60201c1.08963.00543,1.96857.89316,1.96317,1.98279-.00024.0488-.00232.09756-.00616.14621,0,1.61801-1.362,5.70001-3.91599,18.138-1.789,8.51599-2.89999,12.94501-2.89999,15.32901,0,1.10699.25601,2.384,1.534,2.384,1.61899,0,2.98001-2.129,4.60001-2.129.81345-.03217,1.49893.6012,1.5311,1.41461.00156.03946.00153.07895-.00009.11838-.064.84546-.39093,1.64969-.935,2.29999-2.98099,4.08801-7.83401,6.64301-12.008,6.64301-4.76999,0-7.49399-3.06601-7.49399-8.94199,0-.936.086-1.95901.17001-2.89999,0-.17001,0-.25601-.17001-.25601s-.17001.086-.34.341c-3.578,5.621-9.793,11.75201-17.28699,11.75201-5.19501,0-10.04901-3.32101-10.04901-12.85901.10071-7.70108,2.27716-15.23236,6.29999-21.79999,5.87701-9.02802,13.79999-11.66699,19.672-11.66699,6.13101,0,10.89999,2.80899,13.20001,2.80899,3.15195.00397,3.83496-2.80502,6.13495-2.80502ZM308.85304,195.80202c-1.617,5.02399-2.72501,10.55899-2.72501,13.70999,0,1.95901.34,5.10999,3.14999,5.10999,3.06699,0,6.47299-3.66199,10.38901-10.474,3.40799-5.87601,5.026-10.73099,5.026-13.45599,0-1.448-.68201-3.40701-3.577-4.854-1.09479-.61932-2.32123-.96927-3.578-1.021-4.42999.00198-6.814,5.19598-8.68701,10.987l.00201-.00198Z"/><path class="cv" d="M394.00803,186.94701c-1.52139-1.07977-3.33459-1.67255-5.20001-1.70001-8.43201,0-11.922,12.51801-11.922,19.67099,0,5.79099,2.21301,11.66699,8.94101,11.66699,6.81299,0,9.367-5.36401,12.85999-5.36401,1.28516-.07574,2.38837.90466,2.46411,2.18982.00217.03668.00345.07343.00388.11017,0,2.72501-7.40799,11.41101-20.01099,11.41101-10.47501,0-17.543-7.23801-17.543-17.543,0-14.47699,12.85901-28.78299,29.38101-28.78299,3.12817-.04272,6.23099.56619,9.11099,1.78799,2.89398,1.362,3.74597,3.23599,3.74597,5.45001,0,2.64001-.85199,6.21701-3.91599,6.21701-2.97998-.004-4.68399-2.98499-7.91498-5.11398Z"/><path class="cs" d="M453.01502,196.90999c0,14.89999-11.66803,28.01801-27.59198,28.01801-11.66803,0-18.56598-8.09-18.56598-18.98999,0-16.01001,13.79999-27.336,27.42102-27.336,12.17792,0,18.73694,7.91998,18.73694,18.30798ZM439.21503,196.31499c0-7.664-2.55499-11.327-6.81299-11.327-9.11102,0-11.75201,13.28601-11.75201,21.45999,0,7.57901,2.55499,11.923,6.98297,11.923,7.66705,0,11.58502-11.32599,11.58502-22.056h-.00299Z"/><path class="cp" d="M532.97401,216.071c0,3.06601-7.323,8.85699-13.96503,8.85699-4.42999,0-7.06799-2.47-7.06799-7.40799,0-5.96201,4.513-19.92801,4.513-25.293,0-1.87299-.59998-3.151-2.55402-3.151-2.90002,0-6.81299,4.08701-9.96503,10.81601-2.4165,5.37906-4.24377,11.00378-5.45001,16.776l-1.19299,5.535c-.16998,1.022-.85101,1.61801-2.21301,1.78799l-7.75.85199c-.36682.05167-.73657.08008-1.10699.08499-.8653.07092-1.62421-.57306-1.69513-1.43835-.00256-.03116-.00421-.06241-.00488-.09366.00604-.20261.03491-.40387.086-.60001l4.68298-22.99301c.57867-2.34454.92108-4.74118,1.02197-7.15399,0-2.46899-.85199-3.57599-2.55499-3.57599-3.06598,0-6.81201,4.258-9.96301,10.81601-2.54541,5.34402-4.43286,10.9772-5.62097,16.776l-1.19299,5.535c-.16998,1.022-.85199,1.61801-2.21301,1.78799l-7.664.85199c-.45282.05298-.90814.08133-1.36401.08499-.77515.06888-1.45929-.50366-1.52814-1.27878-.005-.05594-.00659-.11209-.00488-.16821.00568-.25772.03448-.5144.086-.767l5.70502-28.10001c.34454-1.45557.57257-2.93625.68201-4.42801,0-3.91699-6.047-2.384-6.047-5.70499,0-1.87399,2.04498-2.29999,4-2.55499,4.30707-.62885,8.55231-1.62585,12.68903-2.98001.57269-.21426,1.17767-.32959,1.789-.341,1.362,0,2.29999.67999,2.29999,2.04401.00281.28598-.026.57138-.086.85101l-1.53101,7.74899c-.0401.16821-.06885.33893-.086.51099-.01788.12354.06781.23816.19135.25601.02142.00308.04321.00308.06464,0,.08398,0,.25598,0,.51001-.42599,5.28101-8,10.72998-10.98499,15.92603-10.98499,6.38599,0,9.453,4.34201,9.453,10.98499,0,.341.08398.51099.34003.51099.16901,0,.255-.17001.42499-.42599,4.94-7.83499,10.64502-11.07001,15.66998-11.07001,3.40698,0,9.367,1.61801,9.367,9.452,0,6.13199-4.427,23.164-4.427,26.48401,0,1.02301.34003,2.04401,1.53101,2.04401,1.789,0,3.06598-2.21399,4.59998-2.21399.90454.01193,1.62817.75488,1.61627,1.65945-.00018.01453-.00061.02902-.00116.04355Z"/><path class="co" d="M614.378,216.071c0,3.06601-7.32202,8.85699-13.96503,8.85699-4.42902,0-7.06799-2.47-7.06799-7.40799,0-5.96201,4.51398-19.92801,4.51398-25.293,0-1.87299-.59998-3.151-2.55499-3.151-2.90002,0-6.81299,4.08701-9.96503,10.81601-2.41663,5.37891-4.24359,11.00369-5.44897,16.776l-1.19397,5.535c-.16998,1.022-.85101,1.61801-2.21198,1.78799l-7.75.85199c-.36719.05167-.73724.08005-1.10797.08499-.86591.07037-1.62488-.57452-1.69525-1.4404-.0025-.03049-.00409-.06104-.00476-.09161.00604-.20261.03491-.40387.086-.60001l4.68402-22.99301c.578-2.34467.91998-4.74124,1.021-7.15399,0-2.46899-.85199-3.57599-2.55499-3.57599-3.06598,0-6.81201,4.258-9.96301,10.81601-2.54498,5.34418-4.43243,10.97733-5.62097,16.776l-1.19299,5.535c-.16998,1.022-.85199,1.61801-2.21301,1.78799l-7.664.85199c-.45245.05295-.90747.08133-1.36298.08499-.77515.06888-1.45929-.50366-1.52814-1.27878-.005-.05594-.00659-.11209-.00488-.16821.00562-.25769.03406-.51434.08502-.767l5.70599-28.10001c.34375-1.45566.57153-2.93631.68103-4.42801,0-3.91699-6.047-2.384-6.047-5.70499,0-1.87399,2.04498-2.29999,4-2.55499,4.30737-.62897,8.55292-1.62595,12.69-2.98001.57263-.21445,1.17761-.32974,1.789-.341,1.36102,0,2.29999.67999,2.29999,2.04401.00281.28598-.026.57138-.086.85101l-1.53198,7.74899c-.0401.16821-.06885.33893-.086.51099-.01788.12354.06781.23816.19135.25601.02142.00308.04321.00308.06464,0,.08398,0,.25598,0,.51001-.42599,5.28101-8,10.73102-10.98499,15.92603-10.98499,6.38702,0,9.453,4.34201,9.453,10.98499,0,.341.08398.51099.34003.51099.16998,0,.25598-.17001.42603-.42599,4.93903-7.83499,10.64398-11.07001,15.66998-11.07001,3.40601,0,9.367,1.61801,9.367,9.452,0,6.13199-4.42798,23.164-4.42798,26.48401,0,1.02301.34003,2.04401,1.53101,2.04401,1.789,0,3.06702-2.21399,4.59998-2.21399.90454.01208,1.62805.75519,1.61597,1.65976-.00018.0144-.00061.02884-.00116.04324Z"/><path class="ci" d="M671.76905,216.071c0,2.55499-6.47101,8.85699-13.88098,8.85699-4,0-7.15302-2.21399-7.15302-7.49399.0036-1.0271.08856-2.05231.25403-3.06601.03912-.19836.06781-.39865.086-.60001.01788-.12354-.06781-.23816-.19135-.25601-.02142-.00308-.04321-.00308-.06464,0-.08398,0-.16901,0-.33899.25601-5.20001,8.08899-10.987,11.155-16.862,11.155-5.02502,0-10.13397-2.55499-10.13397-10.04901,0-6.64301,4.08698-21.97101,4.08698-25.03601,0-3.492-6.04602-2.04401-6.04602-5.28,0-1.95901,2.04401-2.38501,4-2.64001,4.28363-.59866,8.50201-1.59634,12.59998-2.98001.63177-.21027,1.29132-.3252,1.95697-.341,1.13049-.1329,2.15466.67581,2.28754,1.80627.01257.10709.01672.215.01245.32272-.00201.25763-.03082.51434-.086.76599l-4.59998,22.39999c-.45068,1.957-.70758,3.95364-.76703,5.961,0,2.89999.93701,4.68301,3.492,4.68301,3.32001,0,7.578-4.68301,10.64398-10.89999,2.50592-5.32227,4.3642-10.92599,5.53497-16.69101l1.20807-5.61392c.16998-1.021.85101-1.61801,2.21301-1.78799l7.836-.85101c.42395-.04965.85016-.078,1.27698-.08499.81226-.08084,1.53625.51212,1.61707,1.32437.00977.09766.0097.19601-.00006.29364-.00604.20261-.03491.40387-.086.60001l-5.36298,25.97299c-.61487,2.46204-1.04175,4.96725-1.27698,7.49399,0,1.022.25403,2.21399,1.53101,2.21399,1.95898,0,3.06598-2.129,4.68298-2.129.88751.05112,1.56921.80591,1.52997,1.694Z"/><path class="cn" d="M729.84101,216.15599c0,2.29999-6.21698,8.772-13.711,8.772-4.08801,0-7.40802-2.129-7.40802-7.664,0-5.28,4.172-17.62799,4.172-23.58899,0-2.215-.51001-4.68399-3.49103-4.68399-3.32202,0-7.58002,4.68399-10.64398,10.89999-3.578,7.40799-4.85602,12.517-6.729,22.311-.16998,1.10699-.93701,1.61801-2.21399,1.78799l-7.91998.85199c-.39545.05051-.7934.07889-1.19202.08499-.78815.05847-1.47449-.53305-1.53296-1.3212-.00519-.07019-.00525-.14062-.00006-.21082.00812-.22946.03687-.45773.086-.68201l5.70001-28.10001c.37579-1.53897.63257-3.10461.76801-4.68301,0-3.577-6.133-2.215-6.133-5.36499,0-1.95901,1.87299-2.29999,4-2.64001,4.22113-.60123,8.38141-1.57159,12.43298-2.89999.68103-.2594,1.40063-.40305,2.12903-.42499,1.44897,0,2.29999.76599,2.29999,2.04401-.00049.28583-.0293.57086-.086.85101l-1.617,7.664c-.05109.19614-.07996.3974-.086.60001.00836.13779.11823.24765.25598.25601.16998,0,.25598-.08499.42603-.341,5.10901-7.92001,10.81403-11.07001,16.51898-11.07001,5.79102,0,10.56097,3.23499,10.56097,10.133,0,6.29999-4.34399,21.54501-4.34399,25.633,0,1.87399.93701,2.129,1.44897,2.129,1.78699,0,3.23499-2.129,4.76801-2.129.90796.05511,1.5993.83582,1.54419,1.74377-.00085.01407-.00189.02817-.00311.04224Z"/><path class="cm" d="M758.79005,216.071c0,2.72601-6.81201,8.85699-13.711,8.85699-4.08801,0-7.32397-2.129-7.32397-7.57901,0-5.19501,5.02502-23.24799,5.02502-27.16599,0-3.832-6.04602-2.29999-6.04602-5.62,0-1.87399,2.04199-2.38501,4-2.64001,4.2099-.6207,8.36652-1.56039,12.43402-2.811.68451-.26169,1.40021-.43314,2.12903-.51001,1.133-.09027,2.12469.75504,2.21497,1.88806.00861.10846.00867.21744.00006.32593,0,1.87299-6.47302,30.146-6.47302,33.552,0,1.36301.59998,2.129,1.53302,2.129,1.789,0,3.151-2.129,4.68402-2.129.86749.01743,1.55658.73477,1.53912,1.60223-.00067.03363-.00244.06726-.00525.1008ZM752.99903,175.62099c-2.55499,0-7.15399-5.53601-7.15399-8.26099s6.21698-8,9.02698-8c2.55499,0,7.15399,5.535,7.15399,8.26001s-6.13196,8.00098-9.02698,8.00098Z"/><path class="ck" d="M794.21406,215.30501c0,2.38501-6.21698,9.62299-16.09998,9.62299-6.90002,0-11.5-3.91699-11.5-10.89999,0-5.45001,2.98102-14.13501,5.44897-25.29199.05121-.19611.08008-.3974.086-.60001,0-.34-.25598-.60001-.76703-.60001h-5.02399c-.59283.01852-1.0885-.44708-1.10699-1.03995-.00067-.02234-.00067-.04471,0-.06705.00818-.22913.03699-.45703.086-.681l.59998-3.23599c.16901-.85199.76501-1.27802,1.789-1.448,4-.60001,6.64001-1.95901,8.42902-3.66199,1.8537-1.8945,3.17542-4.24408,3.83197-6.81201.17096-.80045.88153-1.37015,1.70001-1.36301h5.45203c.56592-.04544,1.06152.3765,1.10699.94241.00439.05478.00439.1098,0,.16458.00031.23007-.02863.45923-.086.68201l-1.53302,7.57901c-.10132.4473-.1582.9035-.16998,1.362,0,.85199.42603,1.19199,1.95898,1.19199,1.33551.02136,2.67114-.03574,4-.17099,1.63605-.2579,3.28479-.42813,4.93903-.51001.85199,0,2.46899.08499,2.46899,1.362-.12598.95059-.41382,1.87259-.85101,2.72601-.85199,2.29999-1.70001,3.32101-4.854,3.32101-1.19098,0-2.55499-.17099-4-.25601-1.53302-.08499-3.23602-.08499-4.51398-.08499-.53363-.07605-1.02789.29489-1.10394.82852-.0011.00781-.00214.01562-.00305.02347-1.44702,6.38599-3.40601,16.009-3.40601,21.45999,0,3.23599.85101,6.642,4.513,6.642,3.237,0,4.77002-2.89499,6.81299-2.89499.96259-.0094,1.75818.74814,1.79602,1.70999Z"/><path class="cl" d="M845.81403,184.563c0,8.85599-7.409,25.12201-17.45703,38.151-9.20001,11.922-18.90002,17.71301-26.74103,17.71301-5.61902,0-9.70697-2.98099-9.70697-9.367,0-3.40701,1.534-4.76999,3.57599-4.76999,2.98102,0,5.20001,5.70599,11.24103,5.70599,3.20007-.13406,6.24829-1.40155,8.59998-3.57599.31976-.27982.50586-.68213.51202-1.10699-.00043-.28613-.02924-.57153-.086-.85199-1.87299-8.686-5.961-25.974-8.59998-33.12698-1.19098-3.32101-1.95697-4.51401-4.59998-5.19501-1.44702-.34-3.492-.51099-3.492-2.72501,0-2.38501,2.64001-2.55399,7.49402-4.42899,3.15002-1.19101,5.02502-2.383,6.72803-2.383,1.534,0,2.72498.936,3.49103,2.80899,2.81,6.89999,6.81201,23.76001,8.68701,32.957.02704.30551.29407.5329.59998.51099.21887-.01456.41351-.14444.51099-.341,2.26221-3.46301,4.17365-7.14288,5.70599-10.98499,1.44702-3.66101,2.55402-7.15302,2.55402-9.87799,0-6.13199-5.70502-4.51401-5.70502-8.60001,0-2.21301,2.04303-3.91699,4.34198-5.02399,2.03009-.93756,4.23694-1.43091,6.47302-1.44699,3.7439-.00208,5.87292,1.87091,5.87292,5.95892Z"/><path class="bg" d="M911.97804,196.90999c0,14.89999-11.66803,28.01801-27.59198,28.01801-11.66803,0-18.56702-8.09-18.56702-18.98999,0-16.01001,13.79999-27.336,27.422-27.336,12.17798,0,18.737,7.91998,18.737,18.30798ZM898.17805,196.31499c0-7.664-2.55499-11.327-6.81299-11.327-9.11102,0-11.75201,13.28601-11.75201,21.45999,0,7.57901,2.55499,11.923,6.98297,11.923,7.66699,0,11.58502-11.32599,11.58502-22.056h-.00299Z"/><path class="bk" d="M966.47602,168.97899c0,2.80899-1.02405,5.194-3.91797,5.194-3.83203,0-6.47302-6.98199-12.09399-6.98199-5.69995,0-8.26001,6.13-9.70703,12.858-.0531.16531-.08203.3374-.08606.51099,0,.25601.17004.42499.59998.42499,1.61902,0,3.49194,0,5.11096-.16901,1.80505-.27457,3.62439-.44519,5.44897-.51099.93799,0,2.46899.08499,2.46899,1.362-.1676.97903-.48328,1.92688-.93604,2.811-.85095,2.04401-1.44702,3.23499-4.25696,3.23499-1.69995,0-3.323-.17001-4.854-.255-1.44897-.08499-2.90002-.08499-3.91797-.08499-.59998,0-.93701.17001-1.021.681-.42603,2.04401-.85205,5.10901-1.19397,8.091-2.30005,18.89999-4,28.86801-12.177,37.21399-4.46802,4.38501-10.43365,6.91107-16.69202,7.06799-1.021,0-7.06799-.17001-7.06799-2.98099-.00165-.25784.02722-.51495.086-.76599l.68103-3.23599c.16998-.76599.51001-1.448,1.362-1.448,1.10699,0,2.72601,1.70001,6.21698,1.70001,9.367,0,10.98602-11.41101,13.87994-34.233.34204-2.98099.93799-7.15399,1.53406-10.22.11267-.47702.19788-.96017.255-1.44699,0-.341-.255-.42599-.85095-.42599h-4.854c-.76697,0-1.10706-.341-1.10706-.93701-.00024-.22961.02795-.45834.08398-.681l.68201-3.492c.09082-.79733.81067-1.37009,1.60803-1.2793.00366.0004.00732.00082.01099.00128h5.53503c.68201,0,.93506-.16901,1.10706-.67999,5.36597-14.733,18.22302-19.92801,26.82495-19.92801,1.57959.00958,3.1521.21106,4.68298.60001,4.34009,1.19202,6.55505,3.74701,6.55505,8.005Z"/><path class="br" d="M1009.47407,186.94701c-1.51953-1.07895-3.33057-1.67172-5.19397-1.70001-8.43103,0-11.92297,12.51801-11.92297,19.67099,0,5.79099,2.21399,11.66699,8.94104,11.66699,6.81396,0,9.36902-5.36401,12.85901-5.36401,1.28503-.07736,2.38953.90164,2.46692,2.18668.0022.03775.00354.07553.00403.11331,0,2.72501-7.41003,11.41101-20.01404,11.41101-10.474,0-17.54297-7.23801-17.54297-17.543,0-14.47699,12.85999-28.78299,29.38098-28.78299,3.12854-.04312,6.23181.5658,9.11206,1.78799,2.90002,1.362,3.74805,3.23599,3.74805,5.45001,0,2.64001-.85205,6.21701-3.91797,6.21701-2.9812-.004-4.68616-2.98499-7.92017-5.11398Z"/><path class="bo" d="M1065.84504,185.33101c0,2.47-.76599,6.21701-4,6.21701-2.72498,0-3.74597-2.29999-6.30005-2.29999-4.51404,0-8.94299,6.728-11.15601,10.81601-2.83728,5.3981-4.92871,11.15634-6.21704,17.117l-1.021,5.02399c-.172,1.022-.85205,1.61801-2.21497,1.78799l-8.00598.85199c-.85205.08499-1.02197.08499-1.10596.08499-.78723.10062-1.50696-.45599-1.60754-1.24323-.00867-.06757-.01245-.13565-.01147-.20377-.00037-.23007.02856-.45923.08606-.68201l5.79102-28.18799c.37341-1.51132.62952-3.04922.76599-4.60001,0-3.66199-6.13098-2.129-6.13098-5.45001,0-2.04401,2.30005-2.38501,4-2.64001,4.41858-.62787,8.77686-1.62466,13.02905-2.98001.52173-.18668,1.06641-.30139,1.61902-.341,1.08081-.13416,2.0658.63324,2.19995,1.71405.01355.10944.01794.21979.01306.32996.00281.28586-.02539.5712-.08398.85101l-1.53296,7.57901c-.05115.19614-.07996.3974-.08606.60001,0,.17099.08606.341.25598.341s.33997-.17001.51196-.42599c5.02295-7.57901,11.57996-10.98499,15.5-10.98499,3.65894-.00403,5.7019,2.63495,5.7019,6.72498Z"/><path class="bj" d="M1076.40107,204.231c-.85095,0-1.10706.42499-1.10706,1.362,0,10.04901,6.047,11.07101,8.77197,11.07101,3.30554-.15033,6.48584-1.3093,9.11304-3.32101,2.55505-1.87399,3.83203-2.55499,5.10901-2.55499,1.37097.09244,2.46265,1.18402,2.55505,2.55499,0,1.19101-.85205,2.89499-2.90002,4.93799-4.25696,4.259-10.90002,6.64301-17.28699,6.64301-12.51697,0-18.98999-8.431-18.98999-18.13901,0-14.052,13.02905-28.18701,28.09998-28.18701,10.90002,0,14.64795,6.72699,14.64795,11.58099,0,9.28299-11.83801,14.22101-23.5,14.22101-2.46997.00403-4.17297-.16898-4.51294-.16898ZM1089.34504,194.77699c1.89233-1.1499,3.1012-3.15384,3.23596-5.36401,0-2.47-1.95703-4.173-4.59998-4.173-4.42798,0-9.02795,4.854-11.15698,10.89999-.08728.2179-.14453.44666-.17004.67999,0,.51099.33997.68201.93604.68201,5.54004.00504,9.03003-.84698,11.755-2.72098v-.004Z"/><path class="bi" d="M1151.84699,178.60201c1.0896.00433,1.96948.89117,1.96509,1.98083-.00012.04944-.0022.09888-.0061.14816,0,1.61801-1.36304,5.70001-3.91797,18.138-1.78699,8.51599-2.89502,12.94501-2.89502,15.32901,0,1.10699.25598,2.384,1.53296,2.384,1.61804,0,2.98096-2.129,4.59998-2.129.81458-.0321,1.50085.6022,1.53296,1.41675.00159.03873.00159.07751,0,.11624-.06494.84558-.39258,1.64975-.93701,2.29999-2.98096,4.08801-7.83398,6.64301-12.00598,6.64301-4.77002,0-7.49402-3.06601-7.49402-8.94199,0-.936.08398-1.95901.17004-2.89999,0-.17001,0-.25601-.17004-.25601s-.172.086-.34204.341c-3.57605,5.621-9.79297,11.75201-17.28699,11.75201-5.19495,0-10.04895-3.32101-10.04895-12.85901.09998-7.7012,2.27649-15.2327,6.30005-21.79999,5.875-9.02802,13.80005-11.66699,19.672-11.66699,6.13098,0,10.90002,2.80899,13.19995,2.80899,3.15015.00397,3.83215-2.80502,6.1311-2.80502ZM1122.89399,195.80202c-1.61902,5.02399-2.72705,10.55899-2.72705,13.70999,0,1.95901.34204,5.10999,3.15198,5.10999,3.06494,0,6.47095-3.66199,10.38904-10.474,3.40601-5.87601,5.02405-10.73099,5.02405-13.45599,0-1.448-.68005-3.40701-3.57703-4.854-1.09399-.61951-2.31982-.96951-3.57605-1.021-4.42786.00198-6.81189,5.19598-8.68494,10.987v-.00198Z"/><path class="bf" d="M1189.82307,215.30501c0,2.38501-6.21594,9.62299-16.09998,9.62299-6.90002,0-11.5-3.91699-11.5-10.89999,0-5.45001,2.97998-14.13501,5.44897-25.29199.05127-.19611.08008-.3974.08606-.60001,0-.34-.25598-.60001-.76794-.60001h-5.02295c-.5929.01907-1.08887-.44604-1.10803-1.03888-.00073-.02271-.00073-.04541,0-.06812.00818-.22913.03699-.45703.08606-.681l.59998-3.23599c.17004-.85199.76599-1.27802,1.78894-1.448,4-.60001,6.64099-1.95901,8.43005-3.66199,1.85339-1.89478,3.17505-4.24423,3.83203-6.81201.17065-.80066.88135-1.37051,1.69995-1.36301h5.45105c.56531-.04608,1.06091.37485,1.10706.94016.00452.05551.00452.11133,0,.16684.00024.23007-.02869.45923-.08606.68201l-1.53296,7.57901c-.10132.4473-.15833.9035-.17004,1.362,0,.85199.42603,1.19199,1.95898,1.19199,1.33557.02139,2.67114-.03571,4-.17099,1.63635-.25784,3.2854-.4281,4.93994-.51001.85095,0,2.46899.08499,2.46899,1.362-.12585.95074-.41406,1.8728-.85205,2.72601-.85205,2.29999-1.69995,3.32101-4.854,3.32101-1.19104,0-2.55396-.17099-4-.25601-1.53296-.08499-3.23596-.08499-4.51294-.08499-.53418-.07614-1.02893.2952-1.1051.82938-.0011.00754-.00208.01508-.00293.02261-1.44702,6.38599-3.40601,16.009-3.40601,21.45999,0,3.23599.85205,6.642,4.51404,6.642,3.23596,0,4.76904-2.89499,6.81201-2.89499.96289-.00986,1.75903.7478,1.79688,1.70999Z"/><path class="be" d="M1241.08503,196.90999c0,14.89999-11.66797,28.01801-27.59204,28.01801-11.66797,0-18.56604-8.09-18.56604-18.98999,0-16.01001,13.80005-27.336,27.422-27.336,12.17712,0,18.73608,7.91998,18.73608,18.30798ZM1227.28498,196.31499c0-7.664-2.55396-11.327-6.81201-11.327-9.11206,0-11.75195,13.28601-11.75195,21.45999,0,7.57901,2.55396,11.923,6.98206,11.923,7.66699,0,11.58496-11.32599,11.58496-22.056h-.00305Z"/><path class="bn" d="M1287.91706,185.33101c0,2.47-.76599,6.21701-4,6.21701-2.724,0-3.74597-2.29999-6.30005-2.29999-4.51294,0-8.94299,6.728-11.15601,10.81601-2.83643,5.39847-4.92773,11.15659-6.21704,17.117l-1.021,5.02399c-.172,1.022-.85205,1.61801-2.21497,1.78799l-8.00598.85199c-.85095.08499-1.021.08499-1.09998.08499-.78723.10062-1.50696-.45599-1.60754-1.24323-.00867-.06757-.01245-.13565-.01147-.20377-.00037-.23001.0282-.45914.08496-.68201l5.79102-28.18799c.37341-1.51132.62952-3.04922.76599-4.60001,0-3.66199-6.13098-2.129-6.13098-5.45001,0-2.04401,2.30005-2.38501,4-2.64001,4.41895-.62787,8.77747-1.62466,13.03003-2.98001.52161-.18683,1.06628-.30157,1.61902-.341,1.08081-.13416,2.0658.63324,2.19995,1.71405.01355.10944.01794.21979.01306.32996.00281.28586-.02539.5712-.08398.85101l-1.53406,7.57901c-.05115.19614-.07996.3974-.08606.60001,0,.17099.08606.341.25598.341s.33997-.17001.51196-.42599c5.02295-7.57901,11.57996-10.98499,15.5-10.98499,3.65405-.00403,5.69714,2.63495,5.69714,6.72498Z"/><path class="bl" d="M1287.40107,207.81099c2.04504,0,2.98096,2.129,4.59998,4.258,2.81104,3.83301,6.30005,5.87601,9.79297,5.87601,4.08801,0,6.47302-2.64001,6.47302-5.10999,0-4-6.64294-4.853-11.66797-7.06699-4.34204-1.87399-8.08997-4.76999-8.08997-10.47501,0-8.60001,9.19995-16.69101,21.29102-16.69101,3.46851-.06943,6.90662.659,10.04895,2.129,1.9801,1.02811,3.15356,3.14066,2.97998,5.36499.00513,1.40692-.16663,2.8089-.51099,4.173-.51196,1.95801-1.36401,2.98001-3.49304,2.98001-2.30005,0-2.89404-2.04401-4.25696-4-1.6123-2.65372-4.47424-4.2937-7.57898-4.34299-2.90002,0-6.21594,1.53299-6.21594,4.854,0,3.492,4.427,4.42899,9.11096,6.21701,5.36499,2.04401,10.98596,5.02399,10.98596,12.008,0,7.40799-7.75,16.94601-21.96997,16.94601-5.87695,0-11.073-1.70001-13.19995-3.832-1.61694-1.53299-2.12903-3.74701-2.12903-6.47202-.00208-3.92102.76587-6.81604,3.82996-6.81604Z"/><path class="ce" d="M337.80802,178.60201c1.08963.00543,1.96857.89316,1.96317,1.98279-.00024.0488-.00232.09756-.00616.14621,0,1.61801-1.362,5.70001-3.91599,18.138-1.789,8.51599-2.89999,12.94501-2.89999,15.32901,0,1.10699.25601,2.384,1.534,2.384,1.61899,0,2.98001-2.129,4.60001-2.129.81345-.03217,1.49893.6012,1.5311,1.41461.00156.03946.00153.07895-.00009.11838-.064.84546-.39093,1.64969-.935,2.29999-2.98099,4.08801-7.83401,6.64301-12.008,6.64301-4.76999,0-7.49399-3.06601-7.49399-8.94199,0-.936.086-1.95901.17001-2.89999,0-.17001,0-.25601-.17001-.25601s-.17001.086-.34.341c-3.578,5.621-9.793,11.75201-17.28699,11.75201-5.19501,0-10.04901-3.32101-10.04901-12.85901.10071-7.70108,2.27716-15.23236,6.29999-21.79999,5.87701-9.02802,13.79999-11.66699,19.672-11.66699,6.13101,0,10.89999,2.80899,13.20001,2.80899,3.15195.00397,3.83496-2.80502,6.13495-2.80502ZM308.85304,195.80202c-1.617,5.02399-2.72501,10.55899-2.72501,13.70999,0,1.95901.34,5.10999,3.14999,5.10999,3.06699,0,6.47299-3.66199,10.38901-10.474,3.40799-5.87601,5.026-10.73099,5.026-13.45599,0-1.448-.68201-3.40701-3.577-4.854-1.09479-.61932-2.32123-.96927-3.578-1.021-4.42999.00198-6.814,5.19598-8.68701,10.987l.00201-.00198Z"/><path class="cf" d="M394.00803,186.94701c-1.52139-1.07977-3.33459-1.67255-5.20001-1.70001-8.43201,0-11.922,12.51801-11.922,19.67099,0,5.79099,2.21301,11.66699,8.94101,11.66699,6.81299,0,9.367-5.36401,12.85999-5.36401,1.28516-.07574,2.38837.90466,2.46411,2.18982.00217.03668.00345.07343.00388.11017,0,2.72501-7.40799,11.41101-20.01099,11.41101-10.47501,0-17.543-7.23801-17.543-17.543,0-14.47699,12.85901-28.78299,29.38101-28.78299,3.12817-.04272,6.23099.56619,9.11099,1.78799,2.89398,1.362,3.74597,3.23599,3.74597,5.45001,0,2.64001-.85199,6.21701-3.91599,6.21701-2.97998-.004-4.68399-2.98499-7.91498-5.11398Z"/><path class="bq" d="M453.01502,196.90999c0,14.89999-11.66803,28.01801-27.59198,28.01801-11.66803,0-18.56598-8.09-18.56598-18.98999,0-16.01001,13.79999-27.336,27.42102-27.336,12.17792,0,18.73694,7.91998,18.73694,18.30798ZM439.21503,196.31499c0-7.664-2.55499-11.327-6.81299-11.327-9.11102,0-11.75201,13.28601-11.75201,21.45999,0,7.57901,2.55499,11.923,6.98297,11.923,7.66705,0,11.58502-11.32599,11.58502-22.056h-.00299Z"/><path class="bp" d="M532.97401,216.071c0,3.06601-7.323,8.85699-13.96503,8.85699-4.42999,0-7.06799-2.47-7.06799-7.40799,0-5.96201,4.513-19.92801,4.513-25.293,0-1.87299-.59998-3.151-2.55402-3.151-2.90002,0-6.81299,4.08701-9.96503,10.81601-2.4165,5.37906-4.24377,11.00378-5.45001,16.776l-1.19299,5.535c-.16998,1.022-.85101,1.61801-2.21301,1.78799l-7.75.85199c-.36682.05167-.73657.08008-1.10699.08499-.8653.07092-1.62421-.57306-1.69513-1.43835-.00256-.03116-.00421-.06241-.00488-.09366.00604-.20261.03491-.40387.086-.60001l4.68298-22.99301c.57867-2.34454.92108-4.74118,1.02197-7.15399,0-2.46899-.85199-3.57599-2.55499-3.57599-3.06598,0-6.81201,4.258-9.96301,10.81601-2.54541,5.34402-4.43286,10.9772-5.62097,16.776l-1.19299,5.535c-.16998,1.022-.85199,1.61801-2.21301,1.78799l-7.664.85199c-.45282.05298-.90814.08133-1.36401.08499-.77515.06888-1.45929-.50366-1.52814-1.27878-.005-.05594-.00659-.11209-.00488-.16821.00568-.25772.03448-.5144.086-.767l5.70502-28.10001c.34454-1.45557.57257-2.93625.68201-4.42801,0-3.91699-6.047-2.384-6.047-5.70499,0-1.87399,2.04498-2.29999,4-2.55499,4.30707-.62885,8.55231-1.62585,12.68903-2.98001.57269-.21426,1.17767-.32959,1.789-.341,1.362,0,2.29999.67999,2.29999,2.04401.00281.28598-.026.57138-.086.85101l-1.53101,7.74899c-.0401.16821-.06885.33893-.086.51099-.01788.12354.06781.23816.19135.25601.02142.00308.04321.00308.06464,0,.08398,0,.25598,0,.51001-.42599,5.28101-8,10.72998-10.98499,15.92603-10.98499,6.38599,0,9.453,4.34201,9.453,10.98499,0,.341.08398.51099.34003.51099.16901,0,.255-.17001.42499-.42599,4.94-7.83499,10.64502-11.07001,15.66998-11.07001,3.40698,0,9.367,1.61801,9.367,9.452,0,6.13199-4.427,23.164-4.427,26.48401,0,1.02301.34003,2.04401,1.53101,2.04401,1.789,0,3.06598-2.21399,4.59998-2.21399.90454.01193,1.62817.75488,1.61627,1.65945-.00018.01453-.00061.02902-.00116.04355Z"/><path class="bh" d="M614.378,216.071c0,3.06601-7.32202,8.85699-13.96503,8.85699-4.42902,0-7.06799-2.47-7.06799-7.40799,0-5.96201,4.51398-19.92801,4.51398-25.293,0-1.87299-.59998-3.151-2.55499-3.151-2.90002,0-6.81299,4.08701-9.96503,10.81601-2.41663,5.37891-4.24359,11.00369-5.44897,16.776l-1.19397,5.535c-.16998,1.022-.85101,1.61801-2.21198,1.78799l-7.75.85199c-.36719.05167-.73724.08005-1.10797.08499-.86591.07037-1.62488-.57452-1.69525-1.4404-.0025-.03049-.00409-.06104-.00476-.09161.00604-.20261.03491-.40387.086-.60001l4.68402-22.99301c.578-2.34467.91998-4.74124,1.021-7.15399,0-2.46899-.85199-3.57599-2.55499-3.57599-3.06598,0-6.81201,4.258-9.96301,10.81601-2.54498,5.34418-4.43243,10.97733-5.62097,16.776l-1.19299,5.535c-.16998,1.022-.85199,1.61801-2.21301,1.78799l-7.664.85199c-.45245.05295-.90747.08133-1.36298.08499-.77515.06888-1.45929-.50366-1.52814-1.27878-.005-.05594-.00659-.11209-.00488-.16821.00562-.25769.03406-.51434.08502-.767l5.70599-28.10001c.34375-1.45566.57153-2.93631.68103-4.42801,0-3.91699-6.047-2.384-6.047-5.70499,0-1.87399,2.04498-2.29999,4-2.55499,4.30737-.62897,8.55292-1.62595,12.69-2.98001.57263-.21445,1.17761-.32974,1.789-.341,1.36102,0,2.29999.67999,2.29999,2.04401.00281.28598-.026.57138-.086.85101l-1.53198,7.74899c-.0401.16821-.06885.33893-.086.51099-.01788.12354.06781.23816.19135.25601.02142.00308.04321.00308.06464,0,.08398,0,.25598,0,.51001-.42599,5.28101-8,10.73102-10.98499,15.92603-10.98499,6.38702,0,9.453,4.34201,9.453,10.98499,0,.341.08398.51099.34003.51099.16998,0,.25598-.17001.42603-.42599,4.93903-7.83499,10.64398-11.07001,15.66998-11.07001,3.40601,0,9.367,1.61801,9.367,9.452,0,6.13199-4.42798,23.164-4.42798,26.48401,0,1.02301.34003,2.04401,1.53101,2.04401,1.789,0,3.06702-2.21399,4.59998-2.21399.90454.01208,1.62805.75519,1.61597,1.65976-.00018.0144-.00061.02884-.00116.04324Z"/><path class="bm" d="M671.76905,216.071c0,2.55499-6.47101,8.85699-13.88098,8.85699-4,0-7.15302-2.21399-7.15302-7.49399.0036-1.0271.08856-2.05231.25403-3.06601.03912-.19836.06781-.39865.086-.60001.01788-.12354-.06781-.23816-.19135-.25601-.02142-.00308-.04321-.00308-.06464,0-.08398,0-.16901,0-.33899.25601-5.20001,8.08899-10.987,11.155-16.862,11.155-5.02502,0-10.13397-2.55499-10.13397-10.04901,0-6.64301,4.08698-21.97101,4.08698-25.03601,0-3.492-6.04602-2.04401-6.04602-5.28,0-1.95901,2.04401-2.38501,4-2.64001,4.28363-.59866,8.50201-1.59634,12.59998-2.98001.63177-.21027,1.29132-.3252,1.95697-.341,1.13049-.1329,2.15466.67581,2.28754,1.80627.01257.10709.01672.215.01245.32272-.00201.25763-.03082.51434-.086.76599l-4.59998,22.39999c-.45068,1.957-.70758,3.95364-.76703,5.961,0,2.89999.93701,4.68301,3.492,4.68301,3.32001,0,7.578-4.68301,10.64398-10.89999,2.50592-5.32227,4.3642-10.92599,5.53497-16.69101l1.20807-5.61392c.16998-1.021.85101-1.61801,2.21301-1.78799l7.836-.85101c.42395-.04965.85016-.078,1.27698-.08499.81226-.08084,1.53625.51212,1.61707,1.32437.00977.09766.0097.19601-.00006.29364-.00604.20261-.03491.40387-.086.60001l-5.36298,25.97299c-.61487,2.46204-1.04175,4.96725-1.27698,7.49399,0,1.022.25403,2.21399,1.53101,2.21399,1.95898,0,3.06598-2.129,4.68298-2.129.88751.05112,1.56921.80591,1.52997,1.694Z"/><path class="cc" d="M729.84101,216.15599c0,2.29999-6.21698,8.772-13.711,8.772-4.08801,0-7.40802-2.129-7.40802-7.664,0-5.28,4.172-17.62799,4.172-23.58899,0-2.215-.51001-4.68399-3.49103-4.68399-3.32202,0-7.58002,4.68399-10.64398,10.89999-3.578,7.40799-4.85602,12.517-6.729,22.311-.16998,1.10699-.93701,1.61801-2.21399,1.78799l-7.91998.85199c-.39545.05051-.7934.07889-1.19202.08499-.78815.05847-1.47449-.53305-1.53296-1.3212-.00519-.07019-.00525-.14062-.00006-.21082.00812-.22946.03687-.45773.086-.68201l5.70001-28.10001c.37579-1.53897.63257-3.10461.76801-4.68301,0-3.577-6.133-2.215-6.133-5.36499,0-1.95901,1.87299-2.29999,4-2.64001,4.22113-.60123,8.38141-1.57159,12.43298-2.89999.68103-.2594,1.40063-.40305,2.12903-.42499,1.44897,0,2.29999.76599,2.29999,2.04401-.00049.28583-.0293.57086-.086.85101l-1.617,7.664c-.05109.19614-.07996.3974-.086.60001.00836.13779.11823.24765.25598.25601.16998,0,.25598-.08499.42603-.341,5.10901-7.92001,10.81403-11.07001,16.51898-11.07001,5.79102,0,10.56097,3.23499,10.56097,10.133,0,6.29999-4.34399,21.54501-4.34399,25.633,0,1.87399.93701,2.129,1.44897,2.129,1.78699,0,3.23499-2.129,4.76801-2.129.90796.05511,1.5993.83582,1.54419,1.74377-.00085.01407-.00189.02817-.00311.04224Z"/><path class="by" d="M758.79005,216.071c0,2.72601-6.81201,8.85699-13.711,8.85699-4.08801,0-7.32397-2.129-7.32397-7.57901,0-5.19501,5.02502-23.24799,5.02502-27.16599,0-3.832-6.04602-2.29999-6.04602-5.62,0-1.87399,2.04199-2.38501,4-2.64001,4.2099-.6207,8.36652-1.56039,12.43402-2.811.68451-.26169,1.40021-.43314,2.12903-.51001,1.133-.09027,2.12469.75504,2.21497,1.88806.00861.10846.00867.21744.00006.32593,0,1.87299-6.47302,30.146-6.47302,33.552,0,1.36301.59998,2.129,1.53302,2.129,1.789,0,3.151-2.129,4.68402-2.129.86749.01743,1.55658.73477,1.53912,1.60223-.00067.03363-.00244.06726-.00525.1008ZM752.99903,175.62099c-2.55499,0-7.15399-5.53601-7.15399-8.26099s6.21698-8,9.02698-8c2.55499,0,7.15399,5.535,7.15399,8.26001s-6.13196,8.00098-9.02698,8.00098Z"/><path class="bt" d="M794.21406,215.30501c0,2.38501-6.21698,9.62299-16.09998,9.62299-6.90002,0-11.5-3.91699-11.5-10.89999,0-5.45001,2.98102-14.13501,5.44897-25.29199.05121-.19611.08008-.3974.086-.60001,0-.34-.25598-.60001-.76703-.60001h-5.02399c-.59283.01852-1.0885-.44708-1.10699-1.03995-.00067-.02234-.00067-.04471,0-.06705.00818-.22913.03699-.45703.086-.681l.59998-3.23599c.16901-.85199.76501-1.27802,1.789-1.448,4-.60001,6.64001-1.95901,8.42902-3.66199,1.8537-1.8945,3.17542-4.24408,3.83197-6.81201.17096-.80045.88153-1.37015,1.70001-1.36301h5.45203c.56592-.04544,1.06152.3765,1.10699.94241.00439.05478.00439.1098,0,.16458.00031.23007-.02863.45923-.086.68201l-1.53302,7.57901c-.10132.4473-.1582.9035-.16998,1.362,0,.85199.42603,1.19199,1.95898,1.19199,1.33551.02136,2.67114-.03574,4-.17099,1.63605-.2579,3.28479-.42813,4.93903-.51001.85199,0,2.46899.08499,2.46899,1.362-.12598.95059-.41382,1.87259-.85101,2.72601-.85199,2.29999-1.70001,3.32101-4.854,3.32101-1.19098,0-2.55499-.17099-4-.25601-1.53302-.08499-3.23602-.08499-4.51398-.08499-.53363-.07605-1.02789.29489-1.10394.82852-.0011.00781-.00214.01562-.00305.02347-1.44702,6.38599-3.40601,16.009-3.40601,21.45999,0,3.23599.85101,6.642,4.513,6.642,3.237,0,4.77002-2.89499,6.81299-2.89499.96259-.0094,1.75818.74814,1.79602,1.70999Z"/><path class="bs" d="M845.81403,184.563c0,8.85599-7.409,25.12201-17.45703,38.151-9.20001,11.922-18.90002,17.71301-26.74103,17.71301-5.61902,0-9.70697-2.98099-9.70697-9.367,0-3.40701,1.534-4.76999,3.57599-4.76999,2.98102,0,5.20001,5.70599,11.24103,5.70599,3.20007-.13406,6.24829-1.40155,8.59998-3.57599.31976-.27982.50586-.68213.51202-1.10699-.00043-.28613-.02924-.57153-.086-.85199-1.87299-8.686-5.961-25.974-8.59998-33.12698-1.19098-3.32101-1.95697-4.51401-4.59998-5.19501-1.44702-.34-3.492-.51099-3.492-2.72501,0-2.38501,2.64001-2.55399,7.49402-4.42899,3.15002-1.19101,5.02502-2.383,6.72803-2.383,1.534,0,2.72498.936,3.49103,2.80899,2.81,6.89999,6.81201,23.76001,8.68701,32.957.02704.30551.29407.5329.59998.51099.21887-.01456.41351-.14444.51099-.341,2.26221-3.46301,4.17365-7.14288,5.70599-10.98499,1.44702-3.66101,2.55402-7.15302,2.55402-9.87799,0-6.13199-5.70502-4.51401-5.70502-8.60001,0-2.21301,2.04303-3.91699,4.34198-5.02399,2.03009-.93756,4.23694-1.43091,6.47302-1.44699,3.7439-.00208,5.87292,1.87091,5.87292,5.95892Z"/><path class="cg" d="M911.97804,196.90999c0,14.89999-11.66803,28.01801-27.59198,28.01801-11.66803,0-18.56702-8.09-18.56702-18.98999,0-16.01001,13.79999-27.336,27.422-27.336,12.17798,0,18.737,7.91998,18.737,18.30798ZM898.17805,196.31499c0-7.664-2.55499-11.327-6.81299-11.327-9.11102,0-11.75201,13.28601-11.75201,21.45999,0,7.57901,2.55499,11.923,6.98297,11.923,7.66699,0,11.58502-11.32599,11.58502-22.056h-.00299Z"/><path class="ch" d="M966.47602,168.97899c0,2.80899-1.02405,5.194-3.91797,5.194-3.83203,0-6.47302-6.98199-12.09399-6.98199-5.69995,0-8.26001,6.13-9.70703,12.858-.0531.16531-.08203.3374-.08606.51099,0,.25601.17004.42499.59998.42499,1.61902,0,3.49194,0,5.11096-.16901,1.80505-.27457,3.62439-.44519,5.44897-.51099.93799,0,2.46899.08499,2.46899,1.362-.1676.97903-.48328,1.92688-.93604,2.811-.85095,2.04401-1.44702,3.23499-4.25696,3.23499-1.69995,0-3.323-.17001-4.854-.255-1.44897-.08499-2.90002-.08499-3.91797-.08499-.59998,0-.93701.17001-1.021.681-.42603,2.04401-.85205,5.10901-1.19397,8.091-2.30005,18.89999-4,28.86801-12.177,37.21399-4.46802,4.38501-10.43365,6.91107-16.69202,7.06799-1.021,0-7.06799-.17001-7.06799-2.98099-.00165-.25784.02722-.51495.086-.76599l.68103-3.23599c.16998-.76599.51001-1.448,1.362-1.448,1.10699,0,2.72601,1.70001,6.21698,1.70001,9.367,0,10.98602-11.41101,13.87994-34.233.34204-2.98099.93799-7.15399,1.53406-10.22.11267-.47702.19788-.96017.255-1.44699,0-.341-.255-.42599-.85095-.42599h-4.854c-.76697,0-1.10706-.341-1.10706-.93701-.00024-.22961.02795-.45834.08398-.681l.68201-3.492c.09082-.79733.81067-1.37009,1.60803-1.2793.00366.0004.00732.00082.01099.00128h5.53503c.68201,0,.93506-.16901,1.10706-.67999,5.36597-14.733,18.22302-19.92801,26.82495-19.92801,1.57959.00958,3.1521.21106,4.68298.60001,4.34009,1.19202,6.55505,3.74701,6.55505,8.005Z"/><path class="cb" d="M1009.47407,186.94701c-1.51953-1.07895-3.33057-1.67172-5.19397-1.70001-8.43103,0-11.92297,12.51801-11.92297,19.67099,0,5.79099,2.21399,11.66699,8.94104,11.66699,6.81396,0,9.36902-5.36401,12.85901-5.36401,1.28503-.07736,2.38953.90164,2.46692,2.18668.0022.03775.00354.07553.00403.11331,0,2.72501-7.41003,11.41101-20.01404,11.41101-10.474,0-17.54297-7.23801-17.54297-17.543,0-14.47699,12.85999-28.78299,29.38098-28.78299,3.12854-.04312,6.23181.5658,9.11206,1.78799,2.90002,1.362,3.74805,3.23599,3.74805,5.45001,0,2.64001-.85205,6.21701-3.91797,6.21701-2.9812-.004-4.68616-2.98499-7.92017-5.11398Z"/><path class="cd" d="M1065.84504,185.33101c0,2.47-.76599,6.21701-4,6.21701-2.72498,0-3.74597-2.29999-6.30005-2.29999-4.51404,0-8.94299,6.728-11.15601,10.81601-2.83728,5.3981-4.92871,11.15634-6.21704,17.117l-1.021,5.02399c-.172,1.022-.85205,1.61801-2.21497,1.78799l-8.00598.85199c-.85205.08499-1.02197.08499-1.10596.08499-.78723.10062-1.50696-.45599-1.60754-1.24323-.00867-.06757-.01245-.13565-.01147-.20377-.00037-.23007.02856-.45923.08606-.68201l5.79102-28.18799c.37341-1.51132.62952-3.04922.76599-4.60001,0-3.66199-6.13098-2.129-6.13098-5.45001,0-2.04401,2.30005-2.38501,4-2.64001,4.41858-.62787,8.77686-1.62466,13.02905-2.98001.52173-.18668,1.06641-.30139,1.61902-.341,1.08081-.13416,2.0658.63324,2.19995,1.71405.01355.10944.01794.21979.01306.32996.00281.28586-.02539.5712-.08398.85101l-1.53296,7.57901c-.05115.19614-.07996.3974-.08606.60001,0,.17099.08606.341.25598.341s.33997-.17001.51196-.42599c5.02295-7.57901,11.57996-10.98499,15.5-10.98499,3.65894-.00403,5.7019,2.63495,5.7019,6.72498Z"/><path class="bz" d="M1076.40107,204.231c-.85095,0-1.10706.42499-1.10706,1.362,0,10.04901,6.047,11.07101,8.77197,11.07101,3.30554-.15033,6.48584-1.3093,9.11304-3.32101,2.55505-1.87399,3.83203-2.55499,5.10901-2.55499,1.37097.09244,2.46265,1.18402,2.55505,2.55499,0,1.19101-.85205,2.89499-2.90002,4.93799-4.25696,4.259-10.90002,6.64301-17.28699,6.64301-12.51697,0-18.98999-8.431-18.98999-18.13901,0-14.052,13.02905-28.18701,28.09998-28.18701,10.90002,0,14.64795,6.72699,14.64795,11.58099,0,9.28299-11.83801,14.22101-23.5,14.22101-2.46997.00403-4.17297-.16898-4.51294-.16898ZM1089.34504,194.77699c1.89233-1.1499,3.1012-3.15384,3.23596-5.36401,0-2.47-1.95703-4.173-4.59998-4.173-4.42798,0-9.02795,4.854-11.15698,10.89999-.08728.2179-.14453.44666-.17004.67999,0,.51099.33997.68201.93604.68201,5.54004.00504,9.03003-.84698,11.755-2.72098v-.004Z"/><path class="ca" d="M1151.84699,178.60201c1.0896.00433,1.96948.89117,1.96509,1.98083-.00012.04944-.0022.09888-.0061.14816,0,1.61801-1.36304,5.70001-3.91797,18.138-1.78699,8.51599-2.89502,12.94501-2.89502,15.32901,0,1.10699.25598,2.384,1.53296,2.384,1.61804,0,2.98096-2.129,4.59998-2.129.81458-.0321,1.50085.6022,1.53296,1.41675.00159.03873.00159.07751,0,.11624-.06494.84558-.39258,1.64975-.93701,2.29999-2.98096,4.08801-7.83398,6.64301-12.00598,6.64301-4.77002,0-7.49402-3.06601-7.49402-8.94199,0-.936.08398-1.95901.17004-2.89999,0-.17001,0-.25601-.17004-.25601s-.172.086-.34204.341c-3.57605,5.621-9.79297,11.75201-17.28699,11.75201-5.19495,0-10.04895-3.32101-10.04895-12.85901.09998-7.7012,2.27649-15.2327,6.30005-21.79999,5.875-9.02802,13.80005-11.66699,19.672-11.66699,6.13098,0,10.90002,2.80899,13.19995,2.80899,3.15015.00397,3.83215-2.80502,6.1311-2.80502ZM1122.89399,195.80202c-1.61902,5.02399-2.72705,10.55899-2.72705,13.70999,0,1.95901.34204,5.10999,3.15198,5.10999,3.06494,0,6.47095-3.66199,10.38904-10.474,3.40601-5.87601,5.02405-10.73099,5.02405-13.45599,0-1.448-.68005-3.40701-3.57703-4.854-1.09399-.61951-2.31982-.96951-3.57605-1.021-4.42786.00198-6.81189,5.19598-8.68494,10.987v-.00198Z"/><path class="bv" d="M1189.82307,215.30501c0,2.38501-6.21594,9.62299-16.09998,9.62299-6.90002,0-11.5-3.91699-11.5-10.89999,0-5.45001,2.97998-14.13501,5.44897-25.29199.05127-.19611.08008-.3974.08606-.60001,0-.34-.25598-.60001-.76794-.60001h-5.02295c-.5929.01907-1.08887-.44604-1.10803-1.03888-.00073-.02271-.00073-.04541,0-.06812.00818-.22913.03699-.45703.08606-.681l.59998-3.23599c.17004-.85199.76599-1.27802,1.78894-1.448,4-.60001,6.64099-1.95901,8.43005-3.66199,1.85339-1.89478,3.17505-4.24423,3.83203-6.81201.17065-.80066.88135-1.37051,1.69995-1.36301h5.45105c.56531-.04608,1.06091.37485,1.10706.94016.00452.05551.00452.11133,0,.16684.00024.23007-.02869.45923-.08606.68201l-1.53296,7.57901c-.10132.4473-.15833.9035-.17004,1.362,0,.85199.42603,1.19199,1.95898,1.19199,1.33557.02139,2.67114-.03571,4-.17099,1.63635-.25784,3.2854-.4281,4.93994-.51001.85095,0,2.46899.08499,2.46899,1.362-.12585.95074-.41406,1.8728-.85205,2.72601-.85205,2.29999-1.69995,3.32101-4.854,3.32101-1.19104,0-2.55396-.17099-4-.25601-1.53296-.08499-3.23596-.08499-4.51294-.08499-.53418-.07614-1.02893.2952-1.1051.82938-.0011.00754-.00208.01508-.00293.02261-1.44702,6.38599-3.40601,16.009-3.40601,21.45999,0,3.23599.85205,6.642,4.51404,6.642,3.23596,0,4.76904-2.89499,6.81201-2.89499.96289-.00986,1.75903.7478,1.79688,1.70999Z"/><path class="bw" d="M1241.08503,196.90999c0,14.89999-11.66797,28.01801-27.59204,28.01801-11.66797,0-18.56604-8.09-18.56604-18.98999,0-16.01001,13.80005-27.336,27.422-27.336,12.17712,0,18.73608,7.91998,18.73608,18.30798ZM1227.28498,196.31499c0-7.664-2.55396-11.327-6.81201-11.327-9.11206,0-11.75195,13.28601-11.75195,21.45999,0,7.57901,2.55396,11.923,6.98206,11.923,7.66699,0,11.58496-11.32599,11.58496-22.056h-.00305Z"/><path class="bx" d="M1287.91706,185.33101c0,2.47-.76599,6.21701-4,6.21701-2.724,0-3.74597-2.29999-6.30005-2.29999-4.51294,0-8.94299,6.728-11.15601,10.81601-2.83643,5.39847-4.92773,11.15659-6.21704,17.117l-1.021,5.02399c-.172,1.022-.85205,1.61801-2.21497,1.78799l-8.00598.85199c-.85095.08499-1.021.08499-1.09998.08499-.78723.10062-1.50696-.45599-1.60754-1.24323-.00867-.06757-.01245-.13565-.01147-.20377-.00037-.23001.0282-.45914.08496-.68201l5.79102-28.18799c.37341-1.51132.62952-3.04922.76599-4.60001,0-3.66199-6.13098-2.129-6.13098-5.45001,0-2.04401,2.30005-2.38501,4-2.64001,4.41895-.62787,8.77747-1.62466,13.03003-2.98001.52161-.18683,1.06628-.30157,1.61902-.341,1.08081-.13416,2.0658.63324,2.19995,1.71405.01355.10944.01794.21979.01306.32996.00281.28586-.02539.5712-.08398.85101l-1.53406,7.57901c-.05115.19614-.07996.3974-.08606.60001,0,.17099.08606.341.25598.341s.33997-.17001.51196-.42599c5.02295-7.57901,11.57996-10.98499,15.5-10.98499,3.65405-.00403,5.69714,2.63495,5.69714,6.72498Z"/><path class="bu" d="M1287.40107,207.81099c2.04504,0,2.98096,2.129,4.59998,4.258,2.81104,3.83301,6.30005,5.87601,9.79297,5.87601,4.08801,0,6.47302-2.64001,6.47302-5.10999,0-4-6.64294-4.853-11.66797-7.06699-4.34204-1.87399-8.08997-4.76999-8.08997-10.47501,0-8.60001,9.19995-16.69101,21.29102-16.69101,3.46851-.06943,6.90662.659,10.04895,2.129,1.9801,1.02811,3.15356,3.14066,2.97998,5.36499.00513,1.40692-.16663,2.8089-.51099,4.173-.51196,1.95801-1.36401,2.98001-3.49304,2.98001-2.30005,0-2.89404-2.04401-4.25696-4-1.6123-2.65372-4.47424-4.2937-7.57898-4.34299-2.90002,0-6.21594,1.53299-6.21594,4.854,0,3.492,4.427,4.42899,9.11096,6.21701,5.36499,2.04401,10.98596,5.02399,10.98596,12.008,0,7.40799-7.75,16.94601-21.96997,16.94601-5.87695,0-11.073-1.70001-13.19995-3.832-1.61694-1.53299-2.12903-3.74701-2.12903-6.47202-.00208-3.92102.76587-6.81604,3.82996-6.81604Z"/></g></svg>