<svg xmlns="http://www.w3.org/2000/svg" viewBox="0 0 1547.333 440"><defs><style>.a{fill:#fff;}</style></defs><path class="a" d="M343.741,113.693,330.9,113.34a.4.4,0,0,0-.217.058l-9.917,6.11a.392.392,0,0,1-.6-.324l-.124-4.776a.393.393,0,0,0-.373-.382L305,113.3a.4.4,0,0,0-.33.151l-14.887,19.185a.392.392,0,0,1-.537.079L288.1,131.9a.394.394,0,0,1-.125-.5l8.982-17.993a.392.392,0,0,0-.328-.567L257.8,110.531a.393.393,0,0,0-.351.176L220.6,166.642a.393.393,0,0,1-.675-.033l-29.365-55.7a.394.394,0,0,0-.368-.209l-12.115.648a.391.391,0,0,0-.352.511l2.3,7.193a1.114,1.114,0,0,1-1.639,1.291l-14.02-8.516a.387.387,0,0,0-.266-.052l-5.235.842a.4.4,0,0,0-.166.068l-8.8,6.276a.392.392,0,0,1-.257.071l-31.2-2.375a.325.325,0,0,0-.054,0l-6.2.372a.4.4,0,0,0-.123.028l-4.727,1.9a.393.393,0,0,0-.246.365l.248,227.329a.392.392,0,0,0,.393.392h8.629a.392.392,0,0,0,.391-.362l1.574-20.594a.393.393,0,0,1,.776-.052l4.389,20.7a.391.391,0,0,0,.384.311h39.717a.391.391,0,0,0,.391-.364l1.144-15.6a.393.393,0,0,1,.392-.364H166.9a.392.392,0,0,1,.392.392v15.543a.392.392,0,0,0,.393.392h19.2a.393.393,0,0,0,.393-.391l.183-86.309V248.26a.392.392,0,0,1,.732-.2l29.582,50.97a.389.389,0,0,0,.667.01c3.937-6.38,13.444-21.787,20.736-33.618q1.611-2.614,3.215-5.11a.377.377,0,0,0,.025-.369c-2.72-5.709-7.21-14.93-9.262-19.134a.392.392,0,0,1,.636-.442l12.592,13a.394.394,0,0,0,.609-.058c3.183-4.733,6.029-8.752,8.072-11.577a.391.391,0,0,1,.706.236v99.287a.392.392,0,0,0,.393.392h25.3a.387.387,0,0,0,.39-.352c.319-3.5,1.389-16.5,1.883-22.529a.4.4,0,0,1,.795-.035l1.91,22.557a.392.392,0,0,0,.391.359h19.13a.391.391,0,0,0,.392-.392V324.034a.392.392,0,0,1,.393-.392h2.717a.392.392,0,0,1,.393.392v17.224a.391.391,0,0,0,.392.392h8.267a.392.392,0,0,0,.393-.392V299.52a.392.392,0,0,1,.392-.393h2.823a.392.392,0,0,1,.392.393v41.738a.392.392,0,0,0,.393.392H335.76a.392.392,0,0,0,.392-.391l.579-217.182a.389.389,0,0,1,.08-.236l7.232-9.518A.393.393,0,0,0,343.741,113.693Z"/><path class="a" d="M440.648,218.369a43.6,43.6,0,0,1-20.988-4.928,36.166,36.166,0,0,1-14.38-13.87q-5.221-8.941-5.22-20.987V111.059h8.469v65.773a35.591,35.591,0,0,0,3.029,15.366,29.786,29.786,0,0,0,7.884,10.4,32.961,32.961,0,0,0,10.438,5.913,31.6,31.6,0,0,0,21.572,0,32.433,32.433,0,0,0,10.439-5.913,30.043,30.043,0,0,0,7.848-10.4,35.635,35.635,0,0,0,3.029-15.366V111.059h8.469v67.525a40.753,40.753,0,0,1-5.22,20.914A36.431,36.431,0,0,1,461.636,213.4,43.345,43.345,0,0,1,440.648,218.369Z"/><path class="a" d="M534.015,218.369q-11.754,0-19.929-5.329A34.041,34.041,0,0,1,501.6,198.294a51.61,51.61,0,0,1-4.308-21.682,50.813,50.813,0,0,1,4.38-21.716,33.54,33.54,0,0,1,12.593-14.564q8.211-5.182,19.746-5.184,11.753,0,19.966,5.293a33.59,33.59,0,0,1,12.483,14.637,51.306,51.306,0,0,1,4.271,21.534,51.939,51.939,0,0,1-4.308,21.865,33.46,33.46,0,0,1-12.556,14.635Q545.621,218.37,534.015,218.369Zm0-8.177q13.942,0,20.842-9.343t6.9-24.237q0-15.181-6.934-24.235t-20.806-9.052q-9.415,0-15.549,4.27a25.648,25.648,0,0,0-9.161,11.754,45.734,45.734,0,0,0-3.029,17.263q0,15.185,7.044,24.383T534.015,210.192Z"/><path class="a" d="M582.046,216.179l37.231-105.12h10.438l37.231,105.12h-8.907l-35.77-100.741H626.5L590.952,216.179Zm15.4-26.426V181.8h54.019v7.957Z"/><path class="a" d="M709.283,216.179V111.059h7.811l43.069,93,42.633-93h8.1V216.032H802.65V130.4l-39.128,85.776H756.66l-39.2-85.776v85.776Z"/><path class="a" d="M854.115,218.369q-9.126,0-15.148-3.213a21.8,21.8,0,0,1-9.016-8.5,22.955,22.955,0,0,1-2.993-11.5,20.938,20.938,0,0,1,2.811-11.241,21.627,21.627,0,0,1,7.519-7.3,38.2,38.2,0,0,1,10.4-4.16q6.5-1.459,14.015-2.518t14.345-1.863q6.825-.8,11.133-1.386l-3.066,1.825q.291-12.774-4.782-19.017t-17.848-6.241q-8.981,0-14.783,4.051t-8.139,12.519l-8.615-2.408q2.7-10.731,10.877-16.5t20.952-5.768q10.876,0,18.286,4.235a22.724,22.724,0,0,1,10.33,11.9,27.908,27.908,0,0,1,1.679,7.337,81.214,81.214,0,0,1,.437,8.432v49.129h-7.665V195.446l2.848.731A30.435,30.435,0,0,1,875.211,212.6Q866.305,218.366,854.115,218.369Zm.437-7.738a32.444,32.444,0,0,0,14.09-2.884,25.241,25.241,0,0,0,9.818-8.1,27.407,27.407,0,0,0,4.782-12.3,51.559,51.559,0,0,0,.8-8.541q.072-4.6.074-6.789l3.65,2.336q-4.746.585-11.352,1.241t-13.468,1.6a106.645,106.645,0,0,0-12.411,2.409,36,36,0,0,0-6.9,2.738,16.339,16.339,0,0,0-5.767,4.928,13.112,13.112,0,0,0-2.3,7.957,15.864,15.864,0,0,0,1.788,7.154,14.066,14.066,0,0,0,5.95,5.913Q847.47,210.632,854.552,210.631Z"/><path class="a" d="M911.493,216.179V111.059h8.468V175.3l37.3-37.96h11.753l-39.055,39.42,44.6,39.42H961.5l-41.536-37.96v37.96Z"/><path class="a" d="M1012.889,218.369q-11.316,0-19.564-5.074a33.745,33.745,0,0,1-12.775-14.381q-4.527-9.307-4.526-22.01,0-12.919,4.489-22.3a33.294,33.294,0,0,1,12.7-14.418q8.214-5.037,19.528-5.038,11.46,0,19.6,5.22a32.845,32.845,0,0,1,12.41,15.074q4.27,9.856,4.052,23.726h-8.76v-2.92q-.366-16.207-7.3-24.675t-19.855-8.468q-13.359,0-20.623,8.8T985,176.759q0,15.915,7.263,24.674t20.477,8.759a29.439,29.439,0,0,0,15.951-4.27,29.9,29.9,0,0,0,10.84-12.228l7.592,3.359A35.658,35.658,0,0,1,1033.4,212.82,38.222,38.222,0,0,1,1012.889,218.369Zm-31.1-39.2v-7.592h62.269v7.592Z"/><path class="a" d="M1064.937,216.179v-78.84h7.665v18.907l-1.9-2.482a30.015,30.015,0,0,1,3.322-6.242,25.156,25.156,0,0,1,4.124-4.709,20.976,20.976,0,0,1,7.373-4.416,31.044,31.044,0,0,1,8.541-1.751,24.336,24.336,0,0,1,7.811.693V145.3a28,28,0,0,0-9.927-.439,18.809,18.809,0,0,0-9.856,4.527,20.87,20.87,0,0,0-5.84,8.139,36.283,36.283,0,0,0-2.336,9.709,98.922,98.922,0,0,0-.51,9.892v39.055Z"/><path class="a" d="M1186.919,218.369q-15.7,0-26.353-6.972a43.124,43.124,0,0,1-16.06-19.308q-5.4-12.336-5.4-28.47t5.4-28.471a43.135,43.135,0,0,1,16.06-19.308q10.658-6.971,26.353-6.971,18.322,0,29.747,9.489t15.513,25.405l-8.687,2.117q-3.359-13.212-12.52-20.987t-24.053-7.775q-12.921,0-21.5,5.912a36.131,36.131,0,0,0-12.921,16.426,63.767,63.767,0,0,0-4.416,24.163,60.8,60.8,0,0,0,4.2,24.126,36.1,36.1,0,0,0,13.03,16.425q8.687,5.952,21.608,5.95,14.892,0,24.053-7.811t12.52-20.952l8.687,2.118q-4.091,15.915-15.513,25.4T1186.919,218.369Z"/><path class="a" d="M1249.7,216.179V108.869h8.4v107.31Z"/><path class="a" d="M1310.286,218a33.468,33.468,0,0,1-11.643-1.9,26.841,26.841,0,0,1-8.942-5.365,29.708,29.708,0,0,1-6.278-8.176,39.952,39.952,0,0,1-3.686-10.33,55.892,55.892,0,0,1-1.205-11.753V137.339H1287v41.025a53.647,53.647,0,0,0,1.5,13.286,28.222,28.222,0,0,0,4.527,9.929,19.546,19.546,0,0,0,7.592,6.2,25.356,25.356,0,0,0,10.767,2.116,25.809,25.809,0,0,0,11.132-2.226,20.5,20.5,0,0,0,7.738-6.241,27.676,27.676,0,0,0,4.527-9.527,45.789,45.789,0,0,0,1.5-12.009l6.643.8q0,12.775-4.343,21.06a28.474,28.474,0,0,1-11.717,12.264A34.337,34.337,0,0,1,1310.286,218Zm26.791-1.825v-17.74h-.8v-61.1h8.468v78.84Z"/><path class="a" d="M1365.182,216.179V111.059h8.395v44.383h-.73v60.737Zm34.529,2.19q-10.659,0-18.031-5.549a34.77,34.77,0,0,1-11.242-14.965,55.435,55.435,0,0,1-3.868-21.243,55.374,55.374,0,0,1,3.868-21.279,33.166,33.166,0,0,1,11.461-14.782q7.592-5.4,18.615-5.4,10.731,0,18.323,5.476a34.375,34.375,0,0,1,11.571,14.892,57.918,57.918,0,0,1-.074,42.377,34.75,34.75,0,0,1-11.753,14.964Q1410.88,218.368,1399.711,218.369Zm-.51-8.03q8.686,0,14.49-4.453a27.2,27.2,0,0,0,8.76-12.081,51.635,51.635,0,0,0,.073-34.238,26.521,26.521,0,0,0-8.688-11.972q-5.8-4.416-14.782-4.416-8.688,0-14.526,4.27a25.662,25.662,0,0,0-8.761,11.863,47.956,47.956,0,0,0-2.92,17.3,48.542,48.542,0,0,0,2.884,17.265,26.24,26.24,0,0,0,8.76,12.045Q1390.366,210.34,1399.2,210.339Z"/><path class="a" d="M444.9,287.471a1.973,1.973,0,0,1,1.957,2.129c0,1.618-1.362,5.7-3.916,18.138-1.789,8.516-2.9,12.945-2.9,15.329,0,1.107.256,2.384,1.534,2.384,1.619,0,2.98-2.129,4.6-2.129a1.474,1.474,0,0,1,1.531,1.533,4.062,4.062,0,0,1-.935,2.3c-2.981,4.088-7.834,6.643-12.008,6.643-4.77,0-7.494-3.066-7.494-8.942,0-.936.086-1.959.17-2.9,0-.17,0-.256-.17-.256s-.17.086-.34.341c-3.578,5.621-9.793,11.752-17.287,11.752-5.195,0-10.049-3.321-10.049-12.859a42.808,42.808,0,0,1,6.3-21.8c5.877-9.028,13.8-11.667,19.672-11.667,6.131,0,10.9,2.809,13.2,2.809C441.917,290.28,442.6,287.471,444.9,287.471Zm-28.955,17.2c-1.617,5.024-2.725,10.559-2.725,13.71,0,1.959.34,5.11,3.15,5.11,3.067,0,6.473-3.662,10.389-10.474,3.408-5.876,5.026-10.731,5.026-13.456,0-1.448-.682-3.407-3.577-4.854a7.929,7.929,0,0,0-3.578-1.021C420.2,293.688,417.816,298.882,415.943,304.673Z"/><path class="a" d="M501.1,295.816a9.219,9.219,0,0,0-5.2-1.7c-8.432,0-11.922,12.518-11.922,19.671,0,5.791,2.213,11.667,8.941,11.667,6.813,0,9.367-5.364,12.86-5.364a2.331,2.331,0,0,1,2.468,2.3c0,2.725-7.408,11.411-20.011,11.411-10.475,0-17.543-7.238-17.543-17.543,0-14.477,12.859-28.783,29.381-28.783a22.541,22.541,0,0,1,9.111,1.788c2.894,1.362,3.746,3.236,3.746,5.45,0,2.64-.852,6.217-3.916,6.217C506.035,300.926,504.331,297.945,501.1,295.816Z"/><path class="a" d="M560.107,305.779c0,14.9-11.668,28.018-27.592,28.018-11.668,0-18.566-8.09-18.566-18.99,0-16.01,13.8-27.336,27.421-27.336C553.548,287.471,560.107,295.391,560.107,305.779Zm-13.8-.595c0-7.664-2.555-11.327-6.813-11.327-9.111,0-11.752,13.286-11.752,21.46,0,7.579,2.555,11.923,6.983,11.923C542.392,327.24,546.31,315.914,546.31,305.184Z"/><path class="a" d="M640.066,324.94c0,3.066-7.323,8.857-13.965,8.857-4.43,0-7.068-2.47-7.068-7.408,0-5.962,4.513-19.928,4.513-25.293,0-1.873-.6-3.151-2.554-3.151-2.9,0-6.813,4.087-9.965,10.816a81.741,81.741,0,0,0-5.45,16.776l-1.193,5.535c-.17,1.022-.851,1.618-2.213,1.788l-7.75.852a8.772,8.772,0,0,1-1.107.085,1.572,1.572,0,0,1-1.7-1.532,2.7,2.7,0,0,1,.086-.6l4.683-22.993a36.16,36.16,0,0,0,1.022-7.154c0-2.469-.852-3.576-2.555-3.576-3.066,0-6.812,4.258-9.963,10.816a73.159,73.159,0,0,0-5.621,16.776l-1.193,5.535c-.17,1.022-.852,1.618-2.213,1.788l-7.664.852a12.608,12.608,0,0,1-1.364.085,1.409,1.409,0,0,1-1.533-1.447,4.311,4.311,0,0,1,.086-.767l5.705-28.1a28.175,28.175,0,0,0,.682-4.428c0-3.917-6.047-2.384-6.047-5.705,0-1.874,2.045-2.3,4-2.555a76.149,76.149,0,0,0,12.689-2.98,5.393,5.393,0,0,1,1.789-.341c1.362,0,2.3.68,2.3,2.044a3.876,3.876,0,0,1-.086.851l-1.531,7.749a3.843,3.843,0,0,0-.086.511.226.226,0,0,0,.256.256c.084,0,.256,0,.51-.426,5.281-8,10.73-10.985,15.926-10.985,6.386,0,9.453,4.342,9.453,10.985,0,.341.084.511.34.511.169,0,.255-.17.425-.426,4.94-7.835,10.645-11.07,15.67-11.07,3.407,0,9.367,1.618,9.367,9.452,0,6.132-4.427,23.164-4.427,26.484,0,1.023.34,2.044,1.531,2.044,1.789,0,3.066-2.214,4.6-2.214A1.638,1.638,0,0,1,640.066,324.94Z"/><path class="a" d="M721.47,324.94c0,3.066-7.322,8.857-13.965,8.857-4.429,0-7.068-2.47-7.068-7.408,0-5.962,4.514-19.928,4.514-25.293,0-1.873-.6-3.151-2.555-3.151-2.9,0-6.813,4.087-9.965,10.816a81.674,81.674,0,0,0-5.449,16.776l-1.194,5.535c-.17,1.022-.851,1.618-2.212,1.788l-7.75.852a8.793,8.793,0,0,1-1.108.085,1.573,1.573,0,0,1-1.7-1.532,2.7,2.7,0,0,1,.086-.6l4.684-22.993a36.218,36.218,0,0,0,1.021-7.154c0-2.469-.852-3.576-2.555-3.576-3.066,0-6.812,4.258-9.963,10.816a73.207,73.207,0,0,0-5.621,16.776l-1.193,5.535c-.17,1.022-.852,1.618-2.213,1.788l-7.664.852a12.6,12.6,0,0,1-1.363.085,1.409,1.409,0,0,1-1.533-1.447,4.36,4.36,0,0,1,.085-.767l5.706-28.1a28.273,28.273,0,0,0,.681-4.428c0-3.917-6.047-2.384-6.047-5.705,0-1.874,2.045-2.3,4-2.555a76.184,76.184,0,0,0,12.69-2.98,5.384,5.384,0,0,1,1.789-.341c1.361,0,2.3.68,2.3,2.044a3.876,3.876,0,0,1-.086.851l-1.532,7.749a3.843,3.843,0,0,0-.086.511.226.226,0,0,0,.256.256c.084,0,.256,0,.51-.426,5.281-8,10.731-10.985,15.926-10.985,6.387,0,9.453,4.342,9.453,10.985,0,.341.084.511.34.511.17,0,.256-.17.426-.426,4.939-7.835,10.644-11.07,15.67-11.07,3.406,0,9.367,1.618,9.367,9.452,0,6.132-4.428,23.164-4.428,26.484,0,1.023.34,2.044,1.531,2.044,1.789,0,3.067-2.214,4.6-2.214A1.638,1.638,0,0,1,721.47,324.94Z"/><path class="a" d="M778.861,324.94c0,2.555-6.471,8.857-13.881,8.857-4,0-7.153-2.214-7.153-7.494a19.456,19.456,0,0,1,.254-3.066,5.791,5.791,0,0,0,.086-.6.226.226,0,0,0-.256-.256c-.084,0-.169,0-.339.256-5.2,8.089-10.987,11.155-16.862,11.155-5.025,0-10.134-2.555-10.134-10.049,0-6.643,4.087-21.971,4.087-25.036,0-3.492-6.046-2.044-6.046-5.28,0-1.959,2.044-2.385,4-2.64a69.424,69.424,0,0,0,12.6-2.98,6.7,6.7,0,0,1,1.957-.341,2.061,2.061,0,0,1,2.3,2.129,3.714,3.714,0,0,1-.086.766l-4.6,22.4a30.6,30.6,0,0,0-.767,5.961c0,2.9.937,4.683,3.492,4.683,3.32,0,7.578-4.683,10.644-10.9a73.543,73.543,0,0,0,5.535-16.691L764.9,290.2c.17-1.021.851-1.618,2.213-1.788l7.836-.851a12.773,12.773,0,0,1,1.277-.085,1.478,1.478,0,0,1,1.617,1.618,2.7,2.7,0,0,1-.086.6l-5.363,25.973a50.088,50.088,0,0,0-1.277,7.494c0,1.022.254,2.214,1.531,2.214,1.959,0,3.066-2.129,4.683-2.129A1.625,1.625,0,0,1,778.861,324.94Z"/><path class="a" d="M836.933,325.025c0,2.3-6.217,8.772-13.711,8.772-4.088,0-7.408-2.129-7.408-7.664,0-5.28,4.172-17.628,4.172-23.589,0-2.215-.51-4.684-3.491-4.684-3.322,0-7.58,4.684-10.644,10.9-3.578,7.408-4.856,12.517-6.729,22.311-.17,1.107-.937,1.618-2.214,1.788l-7.92.852a10.7,10.7,0,0,1-1.192.085,1.431,1.431,0,0,1-1.533-1.532,3.818,3.818,0,0,1,.086-.682l5.7-28.1a30.868,30.868,0,0,0,.768-4.683c0-3.577-6.133-2.215-6.133-5.365,0-1.959,1.873-2.3,4-2.64a72.9,72.9,0,0,0,12.433-2.9,6.534,6.534,0,0,1,2.129-.425c1.449,0,2.3.766,2.3,2.044a4.331,4.331,0,0,1-.086.851l-1.617,7.664a2.7,2.7,0,0,0-.086.6.273.273,0,0,0,.256.256c.17,0,.256-.085.426-.341,5.109-7.92,10.814-11.07,16.519-11.07,5.791,0,10.561,3.235,10.561,10.133,0,6.3-4.344,21.545-4.344,25.633,0,1.874.937,2.129,1.449,2.129,1.787,0,3.235-2.129,4.768-2.129A1.647,1.647,0,0,1,836.933,325.025Z"/><path class="a" d="M865.882,324.94c0,2.726-6.812,8.857-13.711,8.857-4.088,0-7.324-2.129-7.324-7.579,0-5.195,5.025-23.248,5.025-27.166,0-3.832-6.046-2.3-6.046-5.62,0-1.874,2.042-2.385,4-2.64a84,84,0,0,0,12.434-2.811,8.443,8.443,0,0,1,2.129-.51,2.058,2.058,0,0,1,2.215,2.214c0,1.873-6.473,30.146-6.473,33.552,0,1.363.6,2.129,1.533,2.129,1.789,0,3.151-2.129,4.684-2.129A1.571,1.571,0,0,1,865.882,324.94Zm-5.791-40.45c-2.555,0-7.154-5.536-7.154-8.261s6.217-8,9.027-8c2.555,0,7.154,5.535,7.154,8.26S862.986,284.49,860.091,284.49Z"/><path class="a" d="M901.306,324.174c0,2.385-6.217,9.623-16.1,9.623-6.9,0-11.5-3.917-11.5-10.9,0-5.45,2.981-14.135,5.449-25.292a2.685,2.685,0,0,0,.086-.6c0-.34-.256-.6-.767-.6h-5.024a1.074,1.074,0,0,1-1.107-1.107,3.823,3.823,0,0,1,.086-.681l.6-3.236c.169-.852.765-1.278,1.789-1.448,4-.6,6.64-1.959,8.429-3.662a15.082,15.082,0,0,0,3.832-6.812,1.723,1.723,0,0,1,1.7-1.363h5.452a1.028,1.028,0,0,1,1.107,1.107,2.721,2.721,0,0,1-.086.682l-1.533,7.579a6.977,6.977,0,0,0-.17,1.362c0,.852.426,1.192,1.959,1.192a34.115,34.115,0,0,0,4-.171,46.473,46.473,0,0,1,4.939-.51c.852,0,2.469.085,2.469,1.362a8.4,8.4,0,0,1-.851,2.726c-.852,2.3-1.7,3.321-4.854,3.321-1.191,0-2.555-.171-4-.256-1.533-.085-3.236-.085-4.514-.085a.976.976,0,0,0-1.107.852c-1.447,6.386-3.406,16.009-3.406,21.46,0,3.236.851,6.642,4.513,6.642,3.237,0,4.77-2.895,6.813-2.895A1.78,1.78,0,0,1,901.306,324.174Z"/><path class="a" d="M952.906,293.432c0,8.856-7.409,25.122-17.457,38.151-9.2,11.922-18.9,17.713-26.741,17.713-5.619,0-9.707-2.981-9.707-9.367,0-3.407,1.534-4.77,3.576-4.77,2.981,0,5.2,5.706,11.241,5.706a13.5,13.5,0,0,0,8.6-3.576,1.5,1.5,0,0,0,.512-1.107,4.332,4.332,0,0,0-.086-.852c-1.873-8.686-5.961-25.974-8.6-33.127-1.191-3.321-1.957-4.514-4.6-5.195-1.447-.34-3.492-.511-3.492-2.725,0-2.385,2.64-2.554,7.494-4.429,3.15-1.191,5.025-2.383,6.728-2.383,1.534,0,2.725.936,3.491,2.809,2.81,6.9,6.812,23.76,8.687,32.957a.562.562,0,0,0,.6.511.616.616,0,0,0,.511-.341,62.261,62.261,0,0,0,5.706-10.985c1.447-3.661,2.554-7.153,2.554-9.878,0-6.132-5.705-4.514-5.705-8.6,0-2.213,2.043-3.917,4.342-5.024a15.708,15.708,0,0,1,6.473-1.447C950.777,287.471,952.906,289.344,952.906,293.432Z"/><path class="a" d="M1019.07,305.779c0,14.9-11.668,28.018-27.592,28.018-11.668,0-18.567-8.09-18.567-18.99,0-16.01,13.8-27.336,27.422-27.336C1012.511,287.471,1019.07,295.391,1019.07,305.779Zm-13.8-.595c0-7.664-2.555-11.327-6.813-11.327-9.111,0-11.752,13.286-11.752,21.46,0,7.579,2.555,11.923,6.983,11.923C1001.355,327.24,1005.273,315.914,1005.273,305.184Z"/><path class="a" d="M1073.568,277.848c0,2.809-1.024,5.194-3.918,5.194-3.832,0-6.473-6.982-12.094-6.982-5.7,0-8.26,6.13-9.707,12.858a1.81,1.81,0,0,0-.086.511c0,.256.17.425.6.425,1.619,0,3.492,0,5.111-.169a47.654,47.654,0,0,1,5.449-.511c.938,0,2.469.085,2.469,1.362a9.794,9.794,0,0,1-.936,2.811c-.851,2.044-1.447,3.235-4.257,3.235-1.7,0-3.323-.17-4.854-.255-1.449-.085-2.9-.085-3.918-.085-.6,0-.937.17-1.021.681-.426,2.044-.852,5.109-1.194,8.091-2.3,18.9-4,28.868-12.177,37.214a24.715,24.715,0,0,1-16.692,7.068c-1.021,0-7.068-.17-7.068-2.981a3.268,3.268,0,0,1,.086-.766l.681-3.236c.17-.766.51-1.448,1.362-1.448,1.107,0,2.726,1.7,6.217,1.7,9.367,0,10.986-11.411,13.88-34.233.342-2.981.938-7.154,1.534-10.22a12.762,12.762,0,0,0,.255-1.447c0-.341-.255-.426-.851-.426h-4.854c-.767,0-1.107-.341-1.107-.937a2.776,2.776,0,0,1,.084-.681l.682-3.492a1.453,1.453,0,0,1,1.619-1.278h5.535c.682,0,.935-.169,1.107-.68,5.366-14.733,18.223-19.928,26.825-19.928a19.5,19.5,0,0,1,4.683.6C1071.353,271.035,1073.568,273.59,1073.568,277.848Z"/><path class="a" d="M1116.566,295.816a9.213,9.213,0,0,0-5.194-1.7c-8.431,0-11.923,12.518-11.923,19.671,0,5.791,2.214,11.667,8.941,11.667,6.814,0,9.369-5.364,12.859-5.364a2.331,2.331,0,0,1,2.471,2.3c0,2.725-7.41,11.411-20.014,11.411-10.474,0-17.543-7.238-17.543-17.543,0-14.477,12.86-28.783,29.381-28.783a22.532,22.532,0,0,1,9.112,1.788c2.9,1.362,3.748,3.236,3.748,5.45,0,2.64-.852,6.217-3.918,6.217C1121.505,300.926,1119.8,297.945,1116.566,295.816Z"/><path class="a" d="M1172.937,294.2c0,2.47-.766,6.217-4,6.217-2.725,0-3.746-2.3-6.3-2.3-4.514,0-8.943,6.728-11.156,10.816a67.393,67.393,0,0,0-6.217,17.117l-1.021,5.024c-.172,1.022-.852,1.618-2.215,1.788l-8.006.852c-.852.085-1.022.085-1.106.085a1.437,1.437,0,0,1-1.619-1.447,2.716,2.716,0,0,1,.086-.682l5.791-28.188a30.222,30.222,0,0,0,.766-4.6c0-3.662-6.131-2.129-6.131-5.45,0-2.044,2.3-2.385,4-2.64a79.932,79.932,0,0,0,13.029-2.98,6.1,6.1,0,0,1,1.619-.341,1.972,1.972,0,0,1,2.213,2.044,3.966,3.966,0,0,1-.084.851l-1.533,7.579a2.7,2.7,0,0,0-.086.6c0,.171.086.341.256.341s.34-.17.512-.426c5.023-7.579,11.58-10.985,15.5-10.985C1170.894,287.471,1172.937,290.11,1172.937,294.2Z"/><path class="a" d="M1183.493,313.1c-.851,0-1.107.425-1.107,1.362,0,10.049,6.047,11.071,8.772,11.071a16.2,16.2,0,0,0,9.113-3.321c2.555-1.874,3.832-2.555,5.109-2.555a2.746,2.746,0,0,1,2.555,2.555c0,1.191-.852,2.895-2.9,4.938-4.257,4.259-10.9,6.643-17.287,6.643-12.517,0-18.99-8.431-18.99-18.139,0-14.052,13.029-28.187,28.1-28.187,10.9,0,14.648,6.727,14.648,11.581,0,9.283-11.838,14.221-23.5,14.221C1185.536,313.273,1183.833,313.1,1183.493,313.1Zm12.944-9.454a6.758,6.758,0,0,0,3.236-5.364c0-2.47-1.957-4.173-4.6-4.173-4.428,0-9.028,4.854-11.157,10.9a2.587,2.587,0,0,0-.17.68c0,.511.34.682.936.682C1190.222,306.376,1193.712,305.524,1196.437,303.65Z"/><path class="a" d="M1258.939,287.471a1.973,1.973,0,0,1,1.959,2.129c0,1.618-1.363,5.7-3.918,18.138-1.787,8.516-2.895,12.945-2.895,15.329,0,1.107.256,2.384,1.533,2.384,1.618,0,2.981-2.129,4.6-2.129a1.476,1.476,0,0,1,1.533,1.533,4.068,4.068,0,0,1-.937,2.3c-2.981,4.088-7.834,6.643-12.006,6.643-4.77,0-7.494-3.066-7.494-8.942,0-.936.084-1.959.17-2.9,0-.17,0-.256-.17-.256s-.172.086-.342.341c-3.576,5.621-9.793,11.752-17.287,11.752-5.195,0-10.049-3.321-10.049-12.859a42.792,42.792,0,0,1,6.3-21.8c5.875-9.028,13.8-11.667,19.672-11.667,6.131,0,10.9,2.809,13.2,2.809C1255.958,290.28,1256.64,287.471,1258.939,287.471Zm-28.953,17.2c-1.619,5.024-2.727,10.559-2.727,13.71,0,1.959.342,5.11,3.152,5.11,3.065,0,6.471-3.662,10.389-10.474,3.406-5.876,5.024-10.731,5.024-13.456,0-1.448-.68-3.407-3.577-4.854a7.915,7.915,0,0,0-3.576-1.021C1234.243,293.688,1231.859,298.882,1229.986,304.673Z"/><path class="a" d="M1296.915,324.174c0,2.385-6.216,9.623-16.1,9.623-6.9,0-11.5-3.917-11.5-10.9,0-5.45,2.98-14.135,5.449-25.292a2.685,2.685,0,0,0,.086-.6c0-.34-.256-.6-.768-.6h-5.023a1.074,1.074,0,0,1-1.108-1.107,3.823,3.823,0,0,1,.086-.681l.6-3.236c.17-.852.766-1.278,1.789-1.448,4-.6,6.641-1.959,8.43-3.662a15.092,15.092,0,0,0,3.832-6.812,1.722,1.722,0,0,1,1.7-1.363h5.451a1.027,1.027,0,0,1,1.107,1.107,2.721,2.721,0,0,1-.086.682l-1.533,7.579a6.977,6.977,0,0,0-.17,1.362c0,.852.426,1.192,1.959,1.192a34.106,34.106,0,0,0,4-.171,46.519,46.519,0,0,1,4.94-.51c.851,0,2.469.085,2.469,1.362a8.377,8.377,0,0,1-.852,2.726c-.852,2.3-1.7,3.321-4.854,3.321-1.191,0-2.554-.171-4-.256-1.533-.085-3.236-.085-4.513-.085a.977.977,0,0,0-1.108.852c-1.447,6.386-3.406,16.009-3.406,21.46,0,3.236.852,6.642,4.514,6.642,3.236,0,4.769-2.895,6.812-2.895A1.78,1.78,0,0,1,1296.915,324.174Z"/><path class="a" d="M1348.177,305.779c0,14.9-11.668,28.018-27.592,28.018-11.668,0-18.566-8.09-18.566-18.99,0-16.01,13.8-27.336,27.422-27.336C1341.618,287.471,1348.177,295.391,1348.177,305.779Zm-13.8-.595c0-7.664-2.554-11.327-6.812-11.327-9.112,0-11.752,13.286-11.752,21.46,0,7.579,2.554,11.923,6.982,11.923C1330.462,327.24,1334.38,315.914,1334.38,305.184Z"/><path class="a" d="M1395.009,294.2c0,2.47-.766,6.217-4,6.217-2.724,0-3.746-2.3-6.3-2.3-4.513,0-8.943,6.728-11.156,10.816a67.469,67.469,0,0,0-6.217,17.117l-1.021,5.024c-.172,1.022-.852,1.618-2.215,1.788l-8.006.852c-.851.085-1.021.085-1.1.085a1.437,1.437,0,0,1-1.619-1.447,2.747,2.747,0,0,1,.085-.682l5.791-28.188a30.222,30.222,0,0,0,.766-4.6c0-3.662-6.131-2.129-6.131-5.45,0-2.044,2.3-2.385,4-2.64a79.943,79.943,0,0,0,13.03-2.98,6.086,6.086,0,0,1,1.619-.341,1.972,1.972,0,0,1,2.213,2.044,3.966,3.966,0,0,1-.084.851l-1.534,7.579a2.7,2.7,0,0,0-.086.6c0,.171.086.341.256.341s.34-.17.512-.426c5.023-7.579,11.58-10.985,15.5-10.985C1392.966,287.471,1395.009,290.11,1395.009,294.2Z"/><path class="a" d="M1394.493,316.68c2.045,0,2.981,2.129,4.6,4.258,2.811,3.833,6.3,5.876,9.793,5.876,4.088,0,6.473-2.64,6.473-5.11,0-4-6.643-4.853-11.668-7.067-4.342-1.874-8.09-4.77-8.09-10.475,0-8.6,9.2-16.691,21.291-16.691a22.646,22.646,0,0,1,10.049,2.129,5.558,5.558,0,0,1,2.98,5.365,16.8,16.8,0,0,1-.511,4.173c-.512,1.958-1.364,2.98-3.493,2.98-2.3,0-2.894-2.044-4.257-4a9.036,9.036,0,0,0-7.579-4.343c-2.9,0-6.216,1.533-6.216,4.854,0,3.492,4.427,4.429,9.111,6.217,5.365,2.044,10.986,5.024,10.986,12.008,0,7.408-7.75,16.946-21.97,16.946-5.877,0-11.073-1.7-13.2-3.832-1.617-1.533-2.129-3.747-2.129-6.472C1390.661,319.575,1391.429,316.68,1394.493,316.68Z"/></svg>